<svg width="40" height="40" viewBox="0 0 40 40" fill="none" xmlns="http://www.w3.org/2000/svg">
<path d="M11.7327 11.9044C11.1031 12.6203 9.12389 14.5221 9.88635 16.1141C10.6488 17.7061 9.74555 19.453 9.74555 19.453C9.74555 19.453 16.6555 18.3685 17.1603 15.3715L17.4631 16.6403C17.4631 16.6403 21.7032 15.9805 22.0592 13.646C22.0592 13.646 26.2992 15.1685 28.8549 11.9044C28.5733 10.852 19.6868 5.26936 11.7327 11.9044Z" fill="#222222"/>
<path d="M36.117 3.52665C35.9416 3.23549 35.6016 3.12331 35.2907 3.25419C34.9773 3.38508 34.8152 3.70561 34.8976 4.03683C35.5458 6.67322 35.3465 8.65786 34.3051 9.93733C33.3115 11.158 31.5263 11.7297 28.9918 11.6415C27.613 9.91062 24.4782 8.77539 20.7615 8.67122C16.742 8.55903 13.3335 9.66755 11.6093 11.6415C9.05627 11.7323 7.22052 11.1527 6.15255 9.91329C4.79765 8.34267 4.90126 5.94134 5.22803 4.20244C5.2971 3.83917 5.10317 3.49726 4.76046 3.36638C4.41509 3.23549 4.03785 3.36638 3.84923 3.68691C1.57513 7.53332 1.02254 10.5998 2.20476 12.8008C3.24882 14.7453 5.5973 15.9473 9.02705 16.3079C7.3135 17.2482 6.98408 19.1367 6.98142 19.158C6.96814 19.2408 6.99471 19.3263 7.05315 19.3877C7.1116 19.4492 7.19661 19.4759 7.27897 19.4679C8.29912 19.3343 9.23161 19.0084 10.0047 18.6585C9.08549 19.7831 8.13707 21.5647 7.93251 24.2358C7.8289 25.5847 8.02814 26.9203 8.50369 28.1731C8.50634 28.1811 8.509 28.1864 8.51166 28.1918C8.91015 29.2415 9.50259 30.2298 10.2757 31.1193C12.3744 33.5286 15.5757 34.9737 19.2924 35.1847C19.3588 35.1874 19.4225 35.1901 19.4863 35.1928L19.5421 35.1954C19.5554 35.1981 19.5687 35.1981 19.5819 35.2008C19.6112 35.2008 19.643 35.2008 19.6723 35.2008H19.7334C19.8343 35.2034 19.9326 35.2034 20.0336 35.2034C20.1319 35.2034 20.2328 35.2008 20.3338 35.2008H20.3949C20.4241 35.2008 20.456 35.2008 20.4852 35.2008C20.4985 35.2008 20.5118 35.1981 20.5251 35.1954L20.5808 35.1928C20.6446 35.1901 20.711 35.1901 20.7748 35.1847C24.4914 34.9737 27.6927 33.5313 29.7915 31.1193C31.4917 29.1667 32.3233 26.72 32.1346 24.2358C31.9566 21.8933 31.2048 20.2372 30.4052 19.1046C31.1304 19.4385 31.9726 19.6442 32.8626 19.4625C32.9555 19.4438 33.0326 19.3744 33.0618 19.2836C33.0884 19.2061 33.5878 17.5313 30.4158 16.0622C33.2557 15.8218 36.5048 14.9831 37.8172 12.5337C38.9755 10.3674 38.4043 7.33566 36.117 3.52665ZM37.3443 12.2826C36.5952 13.6796 34.6 15.3891 29.3505 15.5921L29.199 15.5974C29.0715 15.6028 28.9652 15.6989 28.9493 15.8245C28.9307 15.95 29.0051 16.0729 29.1246 16.1156C32.2993 17.2375 32.573 18.5357 32.5703 18.9684C31.1198 19.166 29.8101 18.2044 28.9918 17.5794C28.8484 17.4619 28.7182 17.3657 28.6039 17.2882C28.5216 17.2295 28.4499 17.1814 28.3834 17.144C28.2586 17.0746 28.0992 17.1173 28.0248 17.2428C27.9531 17.3684 27.9929 17.5286 28.1151 17.6061C28.1656 17.6382 28.2267 17.6756 28.2905 17.721C28.3781 17.7851 28.4817 17.8625 28.596 17.9507C28.6225 17.9721 28.6518 17.9934 28.6783 18.0148C29.6799 18.8348 31.3297 20.71 31.6033 24.2759C31.76 26.3407 31.1676 28.3787 29.9216 30.0963C29.3877 25.7691 24.0079 23.918 19.3614 23.6589C14.8478 23.4051 9.91968 24.567 8.74013 27.1821C8.48509 26.2418 8.38679 25.2615 8.46118 24.2759C8.79592 19.8899 11.2161 18.0629 11.9494 17.6088C12.0716 17.5313 12.1114 17.3711 12.0397 17.2455C11.9653 17.12 11.8086 17.0772 11.681 17.1467C11.604 17.1894 11.5084 17.2482 11.3941 17.315C10.6901 17.7317 9.28209 18.565 7.60042 18.8776C7.81827 18.1857 8.49572 16.746 10.3687 16.3988C10.5015 16.3747 10.5945 16.2545 10.5865 16.1183C10.5785 15.9821 10.4696 15.8752 10.3341 15.8699L10.2916 15.8672C6.43415 15.6936 3.72968 14.5156 2.66967 12.547C1.5831 10.525 2.13303 7.63483 4.30351 3.95937C4.39118 3.80978 4.52933 3.84985 4.56918 3.86588C4.60903 3.87923 4.73124 3.94067 4.70201 4.10361C4.20522 6.76137 4.56652 8.89292 5.74873 10.2632C6.94423 11.6495 8.96063 12.2906 11.7448 12.1704C11.8192 12.1677 11.8883 12.133 11.9361 12.0769C13.5088 10.1991 16.8828 9.10127 20.7456 9.20812C24.3214 9.30962 27.4217 10.4288 28.6438 12.0662C28.6916 12.1303 28.766 12.1704 28.8457 12.1731C31.6192 12.2933 33.5931 11.6575 34.7142 10.2792C35.8672 8.86354 36.101 6.7213 35.4129 3.91129C35.389 3.80979 35.4528 3.76705 35.4926 3.75102C35.5325 3.73499 35.6095 3.71897 35.66 3.80711C37.8464 7.43984 38.4123 10.2926 37.3443 12.2826Z" fill="#222222"/>
<path d="M25.8289 18.6864C25.7758 18.5475 25.6217 18.4807 25.4862 18.5341L21.7988 19.9578C21.6606 20.0112 21.5942 20.1662 21.6474 20.3024C21.6872 20.4092 21.7882 20.4734 21.8944 20.4734C21.9263 20.4734 21.9582 20.468 21.9901 20.4547L22.5958 20.2196C22.6649 20.5775 23.0368 20.9408 23.4831 20.9435C24.0702 20.9461 24.3226 20.8019 24.4847 20.3852C24.6095 20.0647 24.7131 19.6907 24.5644 19.4583L25.6749 19.0283C25.813 18.9775 25.8821 18.8226 25.8289 18.6864Z" fill="#222222"/>
<path d="M12.7555 19.226C12.7821 19.0817 12.9202 18.9856 13.0637 19.0123L16.9477 19.7255C17.0912 19.7522 17.1868 19.8911 17.1603 20.0353C17.139 20.1475 17.054 20.2303 16.9477 20.249C16.9159 20.2543 16.884 20.2543 16.8494 20.249L16.2118 20.1315C16.2118 20.4947 15.9116 20.9221 15.4733 21.0076C14.8968 21.1198 14.6205 21.0236 14.3867 20.647C14.2034 20.3558 14.0334 20.0059 14.137 19.7522L12.9654 19.5385C12.8246 19.5118 12.729 19.3729 12.7555 19.226Z" fill="#222222"/>
<path d="M10.0936 26.3605C7.74508 29.0156 12.7077 33.6687 17.1682 34.2029C21.6288 34.7371 27.8161 34.1655 29.4818 30.263C28.3209 21.8703 12.442 23.7081 10.0936 26.3605Z" fill="#FF2F01"/>
<path d="M15.986 28.9408C15.8426 29.5097 15.3033 29.5952 14.1104 29.1785C12.9176 28.7591 12.798 28.3558 12.9415 27.7869C13.085 27.2179 13.882 26.7985 14.6285 27.1217C15.3777 27.445 16.1295 28.3745 15.986 28.9408Z" fill="#222222"/>
<path d="M24.6945 28.5428C24.6334 29.1652 24.3651 29.5284 23.0155 29.5124C21.666 29.4964 21.1559 29.2106 21.217 28.5882C21.2781 27.9658 22.37 27.3061 23.2414 27.2553C24.1074 27.2072 24.7556 27.9177 24.6945 28.5428Z" fill="#222222"/>
</svg>
