<svg width="168" height="300" viewBox="0 0 168 300" fill="none" xmlns="http://www.w3.org/2000/svg">
	<defs>
<linearGradient id="paint0_linear" x1="0.371512" y1="149.98" x2="330.999" y2="149.98" gradientUnits="userSpaceOnUse">
<stop stop-color="#222222"/>
<stop offset="1"/>
</linearGradient>
<linearGradient id="paint1_linear" x1="14.025" y1="114.436" x2="319.726" y2="114.436" gradientUnits="userSpaceOnUse">
<stop stop-color="#F2F2F2"/>
<stop offset="1" stop-color="#A49790"/>
</linearGradient>
<linearGradient id="paint2_linear" x1="74.386" y1="226.565" x2="259.365" y2="226.565" gradientUnits="userSpaceOnUse">
<stop stop-color="#F2F2F2"/>
<stop offset="1" stop-color="#A49790"/>
</linearGradient>
<linearGradient id="paint3_linear" x1="115.355" y1="279.623" x2="217.457" y2="279.623" gradientUnits="userSpaceOnUse">
<stop stop-color="#F2F2F2"/>
<stop offset="1" stop-color="#A49790"/>
</linearGradient>
<linearGradient id="paint4_linear" x1="95.2811" y1="124.519" x2="134.518" y2="181.775" gradientUnits="userSpaceOnUse">
<stop stop-color="#222222"/>
<stop offset="1"/>
</linearGradient>
<linearGradient id="paint5_linear" x1="82.1179" y1="34.8131" x2="137.413" y2="87.8386" gradientUnits="userSpaceOnUse">
<stop stop-color="#222222"/>
<stop offset="1"/>
</linearGradient>
</defs>
<path d="M329.886 51.2783C327.76 43.8845 322.702 38.9413 315.24 36.964C303.646 33.8968 288.728 38.8499 281.603 45.5094L265.823 51.66C271.293 35.2085 271.593 14.7241 262.968 5.4281C259.592 1.78671 253.41 -1.73722 243.139 2.13583C243.087 2.15541 243.034 2.17826 242.982 2.2011C240.249 3.39858 235.223 8.09062 227.245 15.6507C223.845 18.8712 220.347 22.1863 217.447 24.7412C204.623 19.0474 186.39 16.1663 165.777 16.6035C146.032 17.0244 127.228 20.4765 113.744 26.1181C110.652 23.4425 106.889 19.8794 103.238 16.4175C95.5901 9.17063 90.7666 4.66784 88.0822 3.50299C88.0332 3.48015 87.9842 3.46057 87.932 3.44099C77.6612 -0.428799 71.4792 3.09514 68.0992 6.73652C59.481 16.0227 59.7814 36.5104 65.2482 52.9684L49.3115 46.7559C46.2188 44.3446 40.2589 40.3312 32.6595 38.2789C24.6193 36.109 16.9906 36.8726 10.5898 40.4879C5.84792 42.9579 2.70958 46.9125 1.26286 52.2473C-2.52538 66.2125 6.66111 85.9758 12.043 94.4757C12.0887 94.5475 12.1377 94.616 12.1867 94.6845C18.7802 103.498 31.866 120.99 46.6238 124.543C42.4763 138.505 45.533 162.843 53.4655 174.051C56.0127 178.188 58.5274 179.885 60.5521 181.249C61.9629 182.202 62.8153 182.776 63.5272 184.029C63.6415 184.231 63.7754 184.417 63.9289 184.59C67.9849 189.139 67.0901 195.175 66.0516 202.164C65.1862 207.992 64.2946 213.995 66.5578 219.425C62.9851 226.854 60.9114 234.317 60.3856 241.639C59.641 252.044 62.0086 262.244 67.4199 271.961C67.4265 271.974 67.4363 271.987 67.4428 272C74.3367 283.978 90.8091 286.073 102.226 287.306C104.584 295.055 112.663 299.509 124.531 299.509C125.106 299.509 125.694 299.499 126.288 299.477C132.209 299.421 138.384 299.023 144.919 298.602C151.79 298.162 158.893 297.705 165.744 297.672C165.849 297.672 165.95 297.666 166.055 297.656C171.319 297.131 178.079 297.64 185.234 298.181C194.414 298.873 203.904 299.591 211.7 298.224C220.416 296.697 225.85 292.625 227.885 286.105C239.406 284.875 256.61 282.95 263.625 270.688C263.631 270.675 263.638 270.665 263.644 270.652C272.922 253.946 273.21 236.281 264.506 218.126C266.773 212.697 265.881 206.69 265.016 200.862C263.977 193.87 263.083 187.833 267.139 183.285C267.292 183.112 267.429 182.923 267.544 182.724C268.252 181.474 269.105 180.9 270.515 179.944C272.54 178.577 275.055 176.88 277.602 172.743C281.782 166.83 284.806 157.169 285.907 146.199C286.811 137.203 286.246 129.004 284.369 122.961C293.643 120.745 297.768 118.03 308.372 106.297C308.385 106.284 308.398 106.268 308.411 106.255C314.851 98.8643 318.397 94.12 319.518 92.42C322.071 88.857 325.654 80.6736 328.058 72.8982C331.222 62.669 331.836 55.396 329.886 51.2783Z" fill="url(#paint0_linear)"/>
<path d="M315.716 49.9894C304.172 43.4342 289.48 56.2802 289.48 56.2802L252.485 70.699C251.96 67.8146 247.502 62.31 247.502 62.31C262.456 42.6479 257.998 23.25 256.946 16.9591C255.898 10.6683 249.337 13.5527 249.337 13.5527C249.337 13.5527 233.071 27.9714 227.561 33.7369C222.052 39.5024 216.517 37.4077 216.517 37.4077C195.058 26.3138 147.662 25.3937 117.239 38.7128C117.239 38.7128 111.703 40.8109 106.194 35.0421C100.685 29.2765 84.418 14.8578 84.418 14.8578C84.418 14.8578 77.8572 11.9734 76.8089 18.2643C75.7606 24.5551 71.2996 43.953 86.2534 63.6152C86.2534 63.6152 81.7924 69.1197 81.2699 72.0041L44.2757 57.5854C44.2757 57.5854 29.5832 44.7394 18.0389 51.2945C6.49452 57.8497 23.5481 87.2092 23.5481 87.2092C23.5481 87.2092 41.3888 111.325 48.4722 111.325C48.4722 111.325 64.213 116.569 68.674 111.325C68.674 111.325 54.2427 127.578 59.4907 151.172C64.7388 174.766 71.0351 169.783 74.1833 175.288C77.3314 180.792 83.1052 187.347 80.2183 200.976C77.3314 214.609 79.4672 217.754 83.5167 215.131C87.5662 212.511 99.8976 201.763 109.342 198.353C118.787 194.947 129.309 183.168 133.218 177.904C140.298 168.377 194.137 169.294 200.537 176.599C204.858 181.53 214.969 193.638 224.413 197.048C233.858 200.454 246.189 211.202 250.239 213.826C254.288 216.446 256.424 213.3 253.537 199.671C250.65 186.039 256.424 179.487 259.572 173.982C262.72 168.478 269.017 173.457 274.265 149.866C279.513 126.273 265.081 110.02 265.081 110.02C269.542 115.264 285.283 110.02 285.283 110.02C292.366 110.02 310.207 85.904 310.207 85.904C310.207 85.904 327.261 56.5445 315.716 49.9894Z" fill="url(#paint1_linear)"/>
<path d="M236.219 210.945C217.761 209.829 199.381 189.449 194.133 182.632C189.548 176.678 146.738 174.818 140.298 182.89C134.936 189.615 115.991 211.137 97.5332 212.25C79.0753 213.366 75.4928 234.532 75.4928 234.532C75.4928 234.532 67.8836 269.396 92.5464 273.067C117.209 276.737 119.309 276.917 129.015 270.799C138.724 264.681 195.515 263.683 204.731 269.494C214.44 275.612 216.536 275.432 241.199 271.761C265.862 268.091 258.253 233.227 258.253 233.227C258.253 233.227 254.677 212.06 236.219 210.945Z" fill="url(#paint2_linear)"/>
<path d="M115.374 283.028C116.367 290.217 140.696 285.41 166.985 285.159C193.275 284.908 217.604 289.296 217.457 281.723C217.349 276.127 191.165 272.104 166.525 272.287C141.64 272.47 114.535 276.953 115.374 283.028Z" fill="url(#paint3_linear)"/>
<path d="M73.6575 113.723C80.9335 98.4988 85.0711 82.2659 85.463 74.4023C85.8549 66.5388 102.386 58.2804 107.895 61.0343C113.405 63.7882 113.8 81.8744 115.374 90.9191C116.948 99.9638 127.179 139.285 130.723 142.036C134.266 144.789 135.053 167.594 114.587 178.603C94.1205 189.612 97.6638 193.938 93.3335 195.903C89.0031 197.87 84.676 196.297 81.9197 182.14C79.1635 167.985 68.1449 170.344 65.7838 161.691C63.4259 153.045 58.8474 132.978 73.6575 113.723Z" fill="url(#paint4_linear)"/>
<path d="M80.9334 17.119C74.242 19.4781 78.7716 68.9957 93.7286 60.4926C108.686 51.9896 118.254 48.172 110.384 41.4863C98.5782 32.8364 87.6249 14.7599 80.9334 17.119Z" fill="url(#paint5_linear)"/>
<path d="M117 219.5C107.994 227.036 118.506 242.294 131.885 236.013C141.5 231.5 126.994 214.036 117 219.5Z" fill="#272727"/>
<path d="M90.28 133.581C81.2274 137.122 89.8849 148.522 103.66 148.131C114.682 148.137 99.3327 130.041 90.28 133.581Z" fill="white"/>
</svg>
