<svg width="40" height="40" viewBox="0 0 40 40" fill="none" xmlns="http://www.w3.org/2000/svg">
<path d="M20.6739 33.3474C14.4345 33.3474 10.1927 28.501 9.13722 24.914C8.33116 22.1709 10.6058 16.8912 11.4975 14.9868C9.91053 15.6367 7.82737 15.4327 7.72661 15.4226C7.65356 15.4151 7.58555 15.3748 7.54273 15.3143C7.49991 15.2539 7.48983 15.1758 7.50998 15.1052C7.92309 13.6594 9.15485 12.4578 11.0743 11.6291C11.6939 11.3621 12.2859 11.1732 12.7645 11.0447C11.233 10.4477 10.5579 9.06231 10.4496 7.81292C10.3942 7.18066 10.4848 6.39475 10.9181 6.26629C11.0491 6.2285 11.301 6.22347 11.5176 6.63153C12.0919 7.70712 14.7847 8.75752 15.8754 9.10513C19.2785 7.97413 24.6161 8.39479 25.9813 8.88095C26.5456 9.08246 27.5834 8.31167 28.3416 7.74994C29.1174 7.17311 29.6288 6.79526 30.0142 6.95144C30.1275 6.99678 30.2711 7.11013 30.3114 7.37966C30.3139 7.38973 30.3139 7.39729 30.3139 7.40737C30.397 9.33687 29.4197 10.5157 28.1627 11.022C29.6943 11.4049 30.6363 12.1631 31.1855 12.7979C31.9462 13.677 32.1452 14.5083 32.1527 14.5435C32.1679 14.609 32.1553 14.6795 32.12 14.7375C32.0847 14.7954 32.0243 14.8332 31.9588 14.8483C30.6162 15.1204 29.3567 14.7022 28.4751 14.2564C29.7245 15.9869 31.8605 19.4227 32.1376 23.0097C32.319 25.3523 31.528 27.6596 29.9159 29.501C27.926 31.7731 24.8906 33.1358 21.3667 33.3348C21.1299 33.3423 20.9007 33.3474 20.6739 33.3474ZM12.0617 14.1531C12.1222 14.1531 12.1801 14.1732 12.228 14.2161C12.3136 14.2916 12.3388 14.4176 12.2859 14.5183C12.2506 14.5889 8.70396 21.6469 9.62085 24.7704C10.4445 27.5664 14.3867 33.2139 21.3339 32.8234C24.7219 32.632 27.6313 31.3322 29.5305 29.1609C31.052 27.4203 31.7976 25.2465 31.6288 23.0399C31.256 18.1985 27.2307 13.4654 27.1879 13.4176C27.1023 13.3168 27.1073 13.1707 27.2005 13.0775C27.2937 12.9843 27.4423 12.9767 27.5406 13.0624C27.5607 13.08 29.465 14.6569 31.5759 14.3949C31.3013 13.6543 30.2308 11.5888 26.7824 11.3042C26.6489 11.2941 26.5481 11.1807 26.5506 11.0472C26.5531 10.9137 26.6589 10.8054 26.7924 10.8004C28.2434 10.7349 29.9033 9.81547 29.8076 7.44011C29.8051 7.43004 29.8026 7.42248 29.8026 7.41492C29.6036 7.43256 29.0267 7.86078 28.6388 8.14793C27.6967 8.8482 26.6262 9.64166 25.8101 9.34947C24.4851 8.87591 19.2558 8.47288 15.9585 9.60136C15.9081 9.61899 15.8527 9.61899 15.8023 9.60388C15.6436 9.5535 11.8753 8.3696 11.0718 6.86076C11.0592 6.83809 11.0491 6.82045 11.039 6.80534C10.9383 7.04212 10.8501 7.73987 11.1095 8.56104C11.3438 9.30413 12.0189 10.5812 13.9081 10.8004C14.034 10.8155 14.1298 10.9213 14.1298 11.0472C14.1323 11.1732 14.0391 11.2815 13.9156 11.3016C13.8678 11.3092 9.21027 12.0347 8.09186 14.9415C8.84754 14.9793 10.7745 14.9818 11.9156 14.1984C11.9609 14.1682 12.0113 14.1531 12.0617 14.1531Z" fill="#222222"/>
<path d="M12.4646 29.5505L12.0037 29.349C13.0944 26.8653 18.1071 24.2859 22.9459 23.7141C26.9183 23.2456 29.9965 24.165 31.6186 26.301L31.2181 26.6058C29.1803 23.9206 25.1979 23.9559 23.0039 24.2154C18.3212 24.767 13.4949 27.2104 12.4646 29.5505Z" fill="#222222"/>
<path d="M19.3061 28.9863C19.1927 29.4346 18.762 29.5052 17.8123 29.1727C16.8627 28.8427 16.767 28.5203 16.8803 28.0719C16.9937 27.6235 17.6285 27.291 18.2229 27.5454C18.8224 27.8024 19.4219 28.5354 19.3061 28.9863Z" fill="#222222"/>
<path d="M23.1701 28.1777C23.2835 28.626 23.7142 28.6966 24.6638 28.3641C25.6135 28.0341 25.7092 27.7117 25.5958 27.2633C25.4825 26.8149 24.8477 26.4824 24.2532 26.7368C23.6537 26.9938 23.0568 27.7268 23.1701 28.1777Z" fill="#222222"/>
<path d="M24.0517 18.3463C23.8149 18.7443 24.0694 19.0969 24.9762 19.5327C25.8805 19.9685 26.1752 19.8098 26.4145 19.4118C26.6513 19.0138 26.4372 18.3311 25.8351 18.0893C25.2331 17.85 24.2885 17.9483 24.0517 18.3463Z" fill="#222222"/>
<path d="M18.6511 8.7743C16.2254 9.2529 15.8778 9.36373 15.8778 9.36373C15.8778 9.36373 14.3589 10.2857 13.8803 11.0514C13.8803 11.0514 9.33106 11.4343 7.75169 15.1674C7.75169 15.1674 10.8626 16.0288 12.0591 14.4016C12.0591 14.4016 9.59807 19.641 9.56028 21.0415C9.56028 21.0415 9.5225 24.0491 11.9633 23.8451C14.4042 23.6411 16.2707 23.1625 17.2304 21.2934C18.1876 19.4269 17.709 17.2732 19.1927 16.3135C20.6764 15.3588 21.0794 8.29571 18.6511 8.7743ZM16.1649 19.5327C15.2606 19.9685 14.9659 19.8098 14.7266 19.4118C14.4898 19.0138 14.704 18.3311 15.306 18.0893C15.908 17.85 16.8501 17.9458 17.0894 18.3437C17.3262 18.7443 17.0692 19.0969 16.1649 19.5327Z" fill="#222222"/>
</svg>
