<svg width="340" height="217" viewBox="0 0 340 217" fill="none" xmlns="http://www.w3.org/2000/svg">
	<defs>
<linearGradient id="paint0_linear" x1="167.435" y1="-14.1567" x2="196.105" y2="33.3008" gradientUnits="userSpaceOnUse">
<stop stop-color="#FF2F01"/>
<stop offset="1" stop-color="#222222"/>
</linearGradient>
<linearGradient id="paint1_linear" x1="246.271" y1="208.703" x2="247.731" y2="180.983" gradientUnits="userSpaceOnUse">
<stop stop-color="#FF2F01"/>
<stop offset="1" stop-color="#222222"/>
</linearGradient>
<linearGradient id="paint2_linear" x1="-1.31633" y1="181.634" x2="27.354" y2="229.092" gradientUnits="userSpaceOnUse">
<stop stop-color="#FF2F01"/>
<stop offset="1" stop-color="#222222"/>
</linearGradient>
<linearGradient id="paint3_linear" x1="282.862" y1="44.437" x2="332.014" y2="55.4932" gradientUnits="userSpaceOnUse">
<stop stop-color="#FF2F01"/>
<stop offset="1" stop-color="#222222"/>
</linearGradient>
<linearGradient id="paint4_linear" x1="317.435" y1="95.8433" x2="346.105" y2="143.301" gradientUnits="userSpaceOnUse">
<stop stop-color="#FF2F01"/>
<stop offset="1" stop-color="#222222"/>
</linearGradient>
<linearGradient id="paint5_linear" x1="52.5448" y1="78.0946" x2="25.1995" y2="73.2041" gradientUnits="userSpaceOnUse">
<stop stop-color="#FF2F01"/>
<stop offset="1" stop-color="#222222"/>
</linearGradient>
</defs>
<path d="M194.993 2.79737C194.993 12.1031 186.995 19.6404 177.681 19.6404C168.413 19.6404 160.415 12.1031 160.415 2.79737C160.415 -6.46272 168.413 -14 177.681 -14C186.998 -14 194.993 -6.46272 194.993 2.79737ZM164.961 2.79737C164.961 10.1062 171.414 15.1017 177.685 15.1017C185.046 15.1017 190.454 9.0197 190.454 2.79737C190.454 -4.64855 183.821 -9.46132 177.685 -9.46132C170.412 -9.46132 164.961 -3.42171 164.961 2.79737Z" fill="url(#paint0_linear)"/>
<path d="M240.135 217.448L236.311 215.168L253.096 187.097L256.92 189.378L240.135 217.448Z" fill="url(#paint1_linear)"/>
<path d="M26.2439 198.59C26.2439 207.895 18.2461 215.433 8.93226 215.433C-0.335863 215.433 -8.33362 207.895 -8.33362 198.59C-8.33362 189.33 -0.335863 181.792 8.93226 181.792C18.2461 181.792 26.2439 189.326 26.2439 198.59ZM-3.79101 198.59C-3.79101 205.899 2.66207 210.894 8.93226 210.894C16.2932 210.894 21.7012 204.812 21.7012 198.59C21.7012 191.144 15.0686 186.331 8.93226 186.331C1.66276 186.331 -3.79101 192.367 -3.79101 198.59Z" fill="url(#paint2_linear)"/>
<path d="M305.087 46.4473C308.01 45.3967 308 42.0979 307.154 39.7519L311.854 38.0617C313.64 43.0148 312.52 49.074 306.779 51.1394C304.378 52.004 302.06 51.9551 296.028 49.9419C291.005 48.2746 289.882 48.2648 288.785 48.6596C285.862 49.7102 285.872 53.009 286.717 55.355L282.018 57.0452C280.232 52.0921 281.352 46.033 287.093 43.9675C289.493 43.1029 291.76 43.1714 298.056 45.2662C302.87 46.8324 303.993 46.8389 305.087 46.4473Z" fill="url(#paint3_linear)"/>
<path d="M344.993 112.797C344.993 122.103 336.995 129.64 327.681 129.64C318.413 129.64 310.415 122.103 310.415 112.797C310.415 103.537 318.413 96 327.681 96C336.998 96 344.993 103.537 344.993 112.797ZM314.961 112.797C314.961 120.106 321.414 125.102 327.685 125.102C335.046 125.102 340.454 119.02 340.454 112.797C340.454 105.351 333.821 100.539 327.685 100.539C320.412 100.539 314.961 106.578 314.961 112.797Z" fill="url(#paint4_linear)"/>
<path d="M60.5424 85.2311L57.8025 88.7387L32 68.6197L34.7399 65.1121L60.5424 85.2311Z" fill="url(#paint5_linear)"/>
</svg>
