<svg width="375" height="734" viewBox="0 0 375 734" fill="none" xmlns="http://www.w3.org/2000/svg">
<defs>
<linearGradient id="paint0_linear" x1="259.454" y1="719.886" x2="309.3" y2="730.3" gradientUnits="userSpaceOnUse">
<stop stop-color="#FF2F01"/>
<stop offset="1" stop-color="#222222"/>
</linearGradient>
<linearGradient id="paint1_linear" x1="10.2916" y1="685.926" x2="42.405" y2="735.298" gradientUnits="userSpaceOnUse">
<stop stop-color="#FF2F01"/>
<stop offset="1" stop-color="#222222"/>
</linearGradient>
<linearGradient id="paint2_linear" x1="239.004" y1="-0.187078" x2="274.35" y2="54.1756" gradientUnits="userSpaceOnUse">
<stop stop-color="#FF2F01"/>
<stop offset="1" stop-color="#222222"/>
</linearGradient>
<linearGradient id="paint3_linear" x1="337.559" y1="212.025" x2="339.434" y2="178.942" gradientUnits="userSpaceOnUse">
<stop stop-color="#FF2F01"/>
<stop offset="1" stop-color="#222222"/>
</linearGradient>
<linearGradient id="paint4_linear" x1="22.7925" y1="79.9598" x2="-7.67354" y2="74.8972" gradientUnits="userSpaceOnUse">
<stop stop-color="#FF2F01"/>
<stop offset="1" stop-color="#222222"/>
</linearGradient>
<linearGradient id="paint5_linear" x1="341.972" y1="75.5927" x2="396.863" y2="87.065" gradientUnits="userSpaceOnUse">
<stop stop-color="#FF2F01"/>
<stop offset="1" stop-color="#222222"/>
</linearGradient>
<linearGradient id="paint6_linear" x1="45.1345" y1="191.645" x2="80.4804" y2="246.008" gradientUnits="userSpaceOnUse">
<stop stop-color="#FF2F01"/>
<stop offset="1" stop-color="#222222"/>
</linearGradient>
</defs>
<path d="M281.833 722.094C284.779 720.953 284.769 717.378 283.916 714.834L288.649 713C290.449 718.375 289.322 724.946 283.538 727.186C281.119 728.122 278.785 728.07 272.706 725.887C267.646 724.078 266.512 724.07 265.41 724.497C262.465 725.638 262.474 729.214 263.328 731.758L258.595 733.592C256.795 728.217 257.922 721.646 263.706 719.406C266.125 718.469 268.407 718.543 274.752 720.814C279.597 722.514 280.729 722.522 281.833 722.094Z" fill="url(#paint0_linear)"/>
<path d="M38.0538 704.314C38.0538 714.408 29.997 722.582 20.6137 722.582C11.2767 722.582 3.21997 714.408 3.21997 704.314C3.21997 694.27 11.2767 686.097 20.6137 686.097C29.9994 686.097 38.0538 694.27 38.0538 704.314ZM7.79945 704.314C7.79945 712.242 14.3005 717.658 20.6161 717.658C28.0316 717.658 33.4792 711.061 33.4792 704.314C33.4792 696.24 26.7953 691.02 20.6161 691.02C13.2909 691.02 7.79945 697.568 7.79945 704.314Z" fill="url(#paint1_linear)"/>
<path d="M269.577 20.0558C269.577 31.1668 260.704 40.1662 250.371 40.1662C240.089 40.1662 231.217 31.1668 231.217 20.0558C231.217 8.99942 240.089 0 250.371 0C260.708 0 269.577 8.99942 269.577 20.0558ZM236.26 20.0558C236.26 28.7826 243.419 34.7471 250.375 34.7471C258.541 34.7471 264.541 27.4852 264.541 20.0558C264.541 11.1655 257.183 5.41913 250.375 5.41913C242.307 5.41913 236.26 12.6304 236.26 20.0558Z" fill="url(#paint2_linear)"/>
<path d="M330.751 222.467L326.509 219.744L345.131 186.228L349.374 188.951L330.751 222.467Z" fill="url(#paint3_linear)"/>
<path d="M31.6651 88.4806L28.6254 92.6687L0 68.6468L3.03971 64.4588L31.6651 88.4806Z" fill="url(#paint4_linear)"/>
<path d="M366.628 77.993C369.871 76.7385 369.86 72.7998 368.922 69.9987L374.135 67.9807C376.117 73.8946 374.874 81.1291 368.505 83.5952C365.842 84.6276 363.27 84.5692 356.578 82.1655C351.006 80.1747 349.76 80.163 348.542 80.6344C345.3 81.8888 345.311 85.8276 346.249 88.6287L341.036 90.6467C339.054 84.7328 340.296 77.4982 346.666 75.0321C349.329 73.9997 351.843 74.0816 358.828 76.5827C364.168 78.4527 365.415 78.4605 366.628 77.993Z" fill="url(#paint5_linear)"/>
<path d="M75.7099 211.89C75.7099 223.001 66.8372 232 56.5044 232C46.2223 232 37.3495 223.001 37.3495 211.89C37.3495 200.833 46.2223 191.834 56.5044 191.834C66.8372 191.834 75.7099 200.829 75.7099 211.89ZM42.3891 211.89C42.3891 220.616 49.5482 226.581 56.5044 226.581C64.6706 226.581 70.6703 219.319 70.6703 211.89C70.6703 202.999 63.312 197.253 56.5044 197.253C48.4396 197.253 42.3891 204.46 42.3891 211.89Z" fill="url(#paint6_linear)"/>
</svg>
