<svg width="375" height="734" viewBox="0 0 375 734" fill="none" xmlns="http://www.w3.org/2000/svg">
<defs>
<linearGradient id="paint0_linear" x1="257.771" y1="719.886" x2="311.064" y2="731.869" gradientUnits="userSpaceOnUse">
<stop stop-color="#FF2F01"/>
<stop offset="1" stop-color="#222222"/>
</linearGradient>
<linearGradient id="paint1_linear" x1="-10.3892" y1="685.926" x2="20.7129" y2="737.389" gradientUnits="userSpaceOnUse">
<stop stop-color="#FF2F01"/>
<stop offset="1" stop-color="#222222"/>
</linearGradient>
<linearGradient id="paint2_linear" x1="235.761" y1="-0.187078" x2="269.993" y2="56.4765" gradientUnits="userSpaceOnUse">
<stop stop-color="#FF2F01"/>
<stop offset="1" stop-color="#222222"/>
</linearGradient>
<linearGradient id="paint3_linear" x1="341.83" y1="212.025" x2="343.573" y2="178.927" gradientUnits="userSpaceOnUse">
<stop stop-color="#FF2F01"/>
<stop offset="1" stop-color="#222222"/>
</linearGradient>
<linearGradient id="paint4_linear" x1="3.06476" y1="79.9598" x2="-29.5852" y2="74.1206" gradientUnits="userSpaceOnUse">
<stop stop-color="#FF2F01"/>
<stop offset="1" stop-color="#222222"/>
</linearGradient>
<linearGradient id="paint5_linear" x1="346.579" y1="75.5927" x2="405.267" y2="88.7936" gradientUnits="userSpaceOnUse">
<stop stop-color="#FF2F01"/>
<stop offset="1" stop-color="#222222"/>
</linearGradient>
<linearGradient id="paint6_linear" x1="27.1102" y1="191.645" x2="61.3422" y2="248.309" gradientUnits="userSpaceOnUse">
<stop stop-color="#FF2F01"/>
<stop offset="1" stop-color="#222222"/>
</linearGradient>
</defs>
<path d="M281.856 722.094C285.026 720.953 285.016 717.378 284.097 714.834L289.191 713C291.128 718.375 289.916 724.946 283.691 727.186C281.087 728.122 278.576 728.07 272.033 725.887C266.587 724.078 265.367 724.07 264.181 724.497C261.01 725.638 261.021 729.214 261.939 731.758L256.845 733.592C254.909 728.217 256.121 721.646 262.346 719.406C264.95 718.469 267.406 718.543 274.235 720.814C279.449 722.514 280.667 722.522 281.856 722.094Z" fill="url(#paint0_linear)"/>
<path d="M19.4897 704.314C19.4897 714.408 10.8186 722.582 0.719896 722.582C-9.32896 722.582 -18 714.408 -18 704.314C-18 694.27 -9.32896 686.097 0.719896 686.097C10.8212 686.097 19.4897 694.27 19.4897 704.314ZM-13.0714 704.314C-13.0714 712.242 -6.07469 717.658 0.722523 717.658C8.70335 717.658 14.5663 711.061 14.5663 704.314C14.5663 696.24 7.37277 691.02 0.722523 691.02C-7.1612 691.02 -13.0714 697.568 -13.0714 704.314Z" fill="url(#paint1_linear)"/>
<path d="M268.665 20.0558C268.665 31.1668 259.116 40.1662 247.995 40.1662C236.929 40.1662 227.38 31.1668 227.38 20.0558C227.38 8.99942 236.929 0 247.995 0C259.12 0 268.665 8.99942 268.665 20.0558ZM232.808 20.0558C232.808 28.7826 240.513 34.7471 247.999 34.7471C256.788 34.7471 263.245 27.4852 263.245 20.0558C263.245 11.1655 255.326 5.41913 247.999 5.41913C239.316 5.41913 232.808 12.6304 232.808 20.0558Z" fill="url(#paint2_linear)"/>
<path d="M334.504 222.467L329.938 219.744L349.98 186.228L354.546 188.951L334.504 222.467Z" fill="url(#paint3_linear)"/>
<path d="M12.6138 88.4806L9.34236 92.6687L-21.4655 68.6468L-18.194 64.4588L12.6138 88.4806Z" fill="url(#paint4_linear)"/>
<path d="M373.116 77.993C376.606 76.7385 376.594 72.7998 375.584 69.9987L381.195 67.9807C383.328 73.8946 381.991 81.1291 375.136 83.5952C372.27 84.6276 369.502 84.5692 362.3 82.1655C356.303 80.1747 354.961 80.163 353.651 80.6344C350.161 81.8888 350.173 85.8276 351.183 88.6287L345.572 90.6467C343.439 84.7328 344.776 77.4982 351.631 75.0321C354.497 73.9997 357.203 74.0816 364.721 76.5827C370.469 78.4527 371.81 78.4605 373.116 77.993Z" fill="url(#paint5_linear)"/>
<path d="M60.0168 211.89C60.0168 223.001 50.4676 232 39.3469 232C28.2809 232 18.7317 223.001 18.7317 211.89C18.7317 200.833 28.2809 191.834 39.3469 191.834C50.4676 191.834 60.0168 200.829 60.0168 211.89ZM24.1555 211.89C24.1555 220.616 31.8604 226.581 39.3469 226.581C48.1358 226.581 54.5929 219.319 54.5929 211.89C54.5929 202.999 46.6736 197.253 39.3469 197.253C30.6672 197.253 24.1555 204.46 24.1555 211.89Z" fill="url(#paint6_linear)"/>
</svg>
