<svg width="375" height="431" viewBox="0 0 375 431" fill="none" xmlns="http://www.w3.org/2000/svg">
<g clip-path="url(#clip0)">
<path d="M302.43 263.373C299.37 265.041 301.038 270.612 310.783 276.737C320.528 282.862 316.908 270.057 316.908 270.057C316.908 270.057 305.495 261.704 302.43 263.373Z" fill="white"/>
<path d="M442.158 417.659C432.822 411.435 398.764 408.92 390.702 408.159C390.702 408.159 348.371 409.536 337.512 416.771C326.653 424.01 340.399 425.402 340.399 425.402L439.272 426.29C439.272 426.29 453.017 424.894 442.158 417.659Z" fill="white"/>
<path d="M485.866 360.309C481.133 347.504 458.305 345.83 448.006 339.705C437.706 333.58 426.377 322.11 419.843 315.538C413.563 309.22 397.119 306.536 391.027 305.737C391.027 305.737 367.607 306.827 359.827 314.649C353.293 321.221 341.964 332.691 331.664 338.817C321.365 344.942 298.533 346.611 293.804 359.42C289.07 372.225 284.896 400.901 304.244 408.977C323.593 417.048 336.549 415.577 340.399 412.874C355.098 402.565 413.624 400.116 439.272 413.762C443.427 415.972 456.077 417.937 475.426 409.865C494.775 401.789 490.6 373.114 485.866 360.309ZM357.834 378.91C355.329 382.252 351.709 384.199 340.399 376.682C329.088 369.165 334.729 363.317 334.729 363.317C351.986 363.317 360.34 375.568 357.834 378.91ZM439.272 377.57C427.961 385.087 424.342 383.136 421.836 379.799C419.331 376.456 427.684 364.206 444.941 364.206C444.941 364.206 450.582 370.049 439.272 377.57Z" fill="white"/>
<path d="M551.846 171.273C542.938 162.365 523.171 177.121 523.171 177.121L483.002 193.823L477.516 183.801C492.822 164.316 491.431 131.739 482.523 130.907C473.615 130.07 456.631 157.077 446.331 158.468C446.331 158.468 418.77 141.207 396.22 143.712C373.67 141.207 333.332 157.58 333.332 157.58C323.032 156.188 306.048 129.182 297.14 130.019C288.232 130.855 286.841 163.428 302.151 182.913L296.665 192.935L256.492 176.233C256.492 176.233 236.725 161.477 227.817 170.385C218.908 179.293 234.219 208.246 234.219 208.246C234.219 208.246 253.427 233.578 259.552 234.97C265.677 236.361 280.711 239.704 284.608 234.97C284.744 234.805 284.857 234.669 284.946 234.551C283.085 236.991 273.523 250.266 272.635 263.363C271.52 279.788 275.14 292.593 281.543 299C287.945 305.403 301.587 305.68 294.348 344.1C294.348 344.1 292.999 354.329 303.679 344.608C303.858 344.443 304.041 344.274 304.229 344.1C315.506 333.523 334.991 328.23 340.839 320.713C346.687 313.197 363.112 298.718 367.846 296.772C372.579 294.821 383.438 294.821 383.438 294.821C383.438 294.821 407.074 295.71 411.803 297.656C416.537 299.607 432.962 314.08 438.81 321.597C444.657 329.114 464.143 334.402 475.42 344.984C475.608 345.158 475.791 345.327 475.97 345.492C486.65 355.213 485.301 344.984 485.301 344.984C478.062 306.564 491.704 306.286 498.106 299.884C504.509 293.481 508.128 280.676 507.014 264.247C506.126 251.15 496.564 237.875 494.703 235.435C494.797 235.548 494.905 235.684 495.041 235.854C498.938 240.587 513.972 237.245 520.097 235.854C526.222 234.462 545.43 209.129 545.43 209.129C545.43 209.129 560.754 180.181 551.846 171.273ZM295.053 135.867C295.053 135.867 297.14 130.019 303.124 137.399C307.487 142.777 329.294 157.345 329.294 160.226C329.294 163.108 315.097 173.309 310.641 177.765C306.185 182.222 304.238 180.355 304.238 180.355C286.14 149.955 295.053 135.867 295.053 135.867ZM334.446 305.967C324.146 309.027 316.907 318.495 309.945 325.174C302.983 331.854 302.151 327.125 299.923 325.174C297.695 323.224 298.254 310.978 294.912 307.358C291.57 303.739 285.444 298.173 279.042 288.705C272.639 279.238 278.205 253.068 282.102 247.225C285.999 241.377 292.679 225.789 297.695 202.402C302.706 179.016 319.408 180.407 319.408 180.407C319.408 180.407 333.327 178.456 333.05 197.669C332.773 216.876 340.289 242.769 348.643 264.764C356.996 286.759 344.746 302.907 334.446 305.967ZM476.539 138.283C482.523 130.907 484.61 136.75 484.61 136.75C484.61 136.75 493.518 150.839 475.425 181.239C475.425 181.239 473.474 183.105 469.022 178.649C464.566 174.193 450.369 163.992 450.369 161.11C450.369 158.228 472.172 143.665 476.539 138.283ZM477.234 264.261C480.295 265.93 478.626 271.5 468.881 277.625C459.136 283.751 462.756 270.945 462.756 270.945C462.756 270.945 474.174 262.587 477.234 264.261Z" fill="white"/>
</g>
<path d="M68.0263 147.69C51.7821 157.206 73.7604 185.719 84.5765 189.743C93.1601 192.933 117.065 199.259 147.712 183.91C178.359 168.561 228.01 134.491 217.59 101.652C207.171 68.808 173.764 33.2058 171.311 17.5501C168.858 1.89433 171.617 -0.10534 166.098 1.42707C160.58 2.95948 153.532 20.0019 168.858 67.577C172.58 79.1329 201.652 115.765 151.389 131.421C111.326 143.901 73.4293 144.524 68.0263 147.69Z" fill="#FF2F01"/>
<path d="M47.7987 349.35C47.7987 349.35 36.3555 338.573 37.991 352.917C39.6264 367.257 28.1832 384.038 20.5227 382.5C12.8621 380.968 12.2501 377.28 12.2049 366.845C12.1598 356.409 31.5595 347.506 35.2368 341.678C38.914 335.845 33.0896 332.468 26.0411 326.947C18.9926 321.42 -55.9826 321.42 -63.0311 326.947C-70.0797 332.473 -75.9041 335.85 -72.2268 341.678C-68.5495 347.506 -49.1498 356.409 -49.195 366.845C-49.2401 377.28 -49.8522 380.963 -57.5127 382.5C-65.1733 384.033 -76.6165 367.257 -74.981 352.917C-73.3456 338.578 -84.7887 349.35 -84.7887 349.35C-84.7887 349.35 -96.1266 361.011 -92.7553 376.361C-89.3841 391.71 -80.1884 403.678 -61.496 402.145C-42.7986 400.613 5.81858 400.613 24.516 402.145C43.2134 403.678 52.404 391.71 55.7753 376.361C59.1465 361.011 47.7987 349.35 47.7987 349.35Z" fill="#FF2F01"/>
<path d="M36.4559 411.048C36.4559 411.048 28.4893 405.522 16.8404 407.979C5.19654 410.436 -17.9106 408.21 -17.9106 408.21C-17.9106 408.21 -42.2016 410.43 -53.8455 407.979C-65.4893 405.522 -73.4609 411.048 -73.4609 411.048C-73.4609 411.048 -83.8807 428.543 -31.1648 431H-20.5494H-16.4557H-5.84028C46.8756 428.543 36.4559 411.048 36.4559 411.048Z" fill="#FF2F01"/>
<path d="M147.095 211.227C134.247 203.685 92.543 200.791 88.5597 201.404C84.5764 202.017 69.5563 196.184 60.0546 179.302C50.5529 162.421 54.2302 146.459 54.2302 146.459C37.3739 121.905 -17.4841 127.547 -17.4841 127.547C-17.4841 127.547 -74.379 121.9 -91.2352 146.459C-91.2352 146.459 -87.558 162.421 -97.0597 179.302C-106.561 196.184 -121.576 202.017 -125.565 201.404C-129.548 200.791 -171.257 203.685 -184.1 211.227C-196.948 218.768 -219.037 229.641 -215.665 238.544C-212.294 247.447 -154.371 249.286 -126.172 225.345C-126.172 225.345 -141.202 266.781 -119.74 299.931C-98.2787 333.081 -95.5245 343.21 -95.5245 343.21C-95.5245 343.21 -93.9944 346.587 -89.7001 343.21C-85.4108 339.834 -70.3907 327.555 -66.1013 318.044C-61.812 308.528 -54.4575 277.528 -62.4241 268.625C-64.2652 259.721 -45.2618 256.039 -32.3889 257.27C-19.9373 258.455 -18.5126 263.585 -18.4975 263.887C-18.4825 263.585 -17.0577 258.455 -4.60617 257.27C8.26678 256.044 27.2702 259.727 25.4291 268.625C17.4625 277.528 24.817 308.528 29.1063 318.044C33.3956 327.56 48.4157 339.839 52.7051 343.21C56.9944 346.587 58.5295 343.21 58.5295 343.21C58.5295 343.21 61.2887 333.081 82.7453 299.931C104.202 266.786 89.1718 225.345 89.1718 225.345C117.366 249.286 175.294 247.447 178.665 238.544C182.037 229.646 159.943 218.768 147.095 211.227ZM-83.5696 294.103C-96.6383 296.736 -101.374 289.194 -102.969 285.014C-103.366 283.974 -102.397 282.939 -101.329 283.25C-87.6683 287.285 -74.4342 280.653 -69.4275 277.653C-68.4743 277.08 -67.2703 277.854 -67.4057 278.96C-67.9224 283.25 -70.6315 291.495 -83.5696 294.103ZM65.9693 285.014C64.374 289.194 59.6382 296.736 46.5696 294.103C33.6314 291.495 30.9224 283.25 30.4057 278.96C30.2753 277.854 31.4742 277.086 32.4274 277.653C37.4341 280.653 50.6683 287.285 64.3289 283.25C65.3974 282.934 66.3657 283.974 65.9693 285.014ZM54.2352 253.893C54.2352 253.893 64.5045 265.248 52.088 269.243C40.384 273.006 34.4642 261.108 36.7619 258.194C33.4157 256.581 -5.42389 254.943 -19.3002 253.466C-33.1815 254.943 -70.4208 256.581 -73.7669 258.194C-71.4693 261.108 -77.384 273.006 -89.0931 269.243C-101.504 265.253 -91.2402 253.893 -91.2402 253.893C-91.2402 253.893 -105.643 243.458 -103.501 241.222C-101.354 238.986 -90.0162 248.367 -90.0162 248.367C-90.0162 248.367 -80.8205 258.496 -58.7568 252.662C-43.2802 248.573 -26.3738 249.04 -18.5126 249.758C-10.6463 249.04 6.2601 248.573 21.7317 252.662C43.8004 258.496 52.991 248.367 52.991 248.367C52.991 248.367 64.3289 238.986 66.476 241.222C68.6382 243.458 54.2352 253.893 54.2352 253.893Z" fill="#FF2F01"/>
<defs>
<clipPath id="clip0">
<rect width="329.596" height="296.29" fill="white" transform="translate(225.035 130)"/>
</clipPath>
</defs>
</svg>
