<svg width="362" height="220" viewBox="0 0 362 220" fill="none" xmlns="http://www.w3.org/2000/svg">
<path d="M297.848 126.855H291.63C288.955 126.855 286.79 129.021 286.79 131.69V143.306C283.975 140.875 280.294 139.401 276.277 139.401H268.498V131.69C268.498 129.018 266.33 126.855 263.659 126.855H262.535C262.561 126.652 262.578 126.45 262.578 126.241V118.019C265.572 117.334 268.796 116.152 272.003 114.547C276.294 112.4 282.704 108.073 287.822 102.373C294.004 95.4885 296.283 88.7409 294.415 82.8579C292.583 77.0891 288.707 71.2974 285.595 66.6413C283.919 64.1354 281.623 60.7061 281.359 59.5445C281.16 58.2622 281.101 57.3584 281.062 56.696C280.98 55.3843 280.843 53.1917 278.763 51.7103C276.699 50.242 274.511 50.8489 273.795 51.0479C272.13 51.5113 270.703 52.712 269.775 54.4316C267.499 58.6537 268.002 65.9365 271.271 76.0743C271.558 76.9683 271.983 77.8004 272.391 78.6063C272.995 79.794 273.746 81.2721 273.472 82.0193C273.361 82.3228 272.568 83.9314 267.8 85.938C264.779 87.2106 262.836 87.9839 261.467 88.3624C260.579 87.2954 259.24 86.6167 257.744 86.6167H246.429C244.512 86.6167 242.774 87.7489 242 89.5011L237.223 100.324V91.4588C237.223 88.7865 235.054 86.6232 232.383 86.6232H226.165C224.529 86.6232 223.082 87.439 222.207 88.6821C221.606 88.0752 220.845 87.6217 219.973 87.3965L217.55 86.7766C217.158 86.6755 216.756 86.6265 216.355 86.6265C210.979 86.6232 206.188 89.8633 203.85 95.0741C203.814 95.1524 203.781 95.2308 203.752 95.3091L201.78 100.415H197.88V91.4588C197.88 88.7865 195.712 86.6232 193.041 86.6232H186.823C185.64 86.6232 184.556 87.0474 183.714 87.7522C182.871 87.0474 181.79 86.6232 180.605 86.6232H174.387C171.712 86.6232 169.547 88.7898 169.547 91.4588V103.075C166.732 100.644 163.051 99.1691 159.035 99.1691H151.256V91.4588C151.256 88.7865 149.087 86.6232 146.416 86.6232H140.198C137.523 86.6232 135.358 88.7898 135.358 91.4588V102.97C134.689 101.916 133.915 100.921 133.03 100.001C129.62 96.4609 125.104 94.5129 120.31 94.5129H108.305V91.0184H129.699C132.373 91.0184 134.538 88.8518 134.538 86.1828V80.5934C134.538 77.9211 132.37 75.7578 129.699 75.7578H97.247C94.5723 75.7578 92.4071 77.9244 92.4071 80.5934V88.0426C91.1596 87.6152 89.4778 86.943 87.1199 85.9511C82.352 83.9444 81.5584 82.3358 81.4474 82.0324C81.173 81.2852 81.9242 79.8071 82.5283 78.6194C82.9365 77.8134 83.3611 76.9781 83.6485 76.0874C86.9174 65.9496 87.4204 58.6668 85.1442 54.4446C84.2167 52.7251 82.7896 51.5243 81.1241 51.061C80.4056 50.862 78.2175 50.2551 76.1536 51.7234C74.0733 53.2047 73.9362 55.3974 73.8545 56.7091C73.8121 57.3682 73.7566 58.272 73.5574 59.5543C73.2928 60.7159 70.997 64.1452 69.3217 66.6511C66.2062 71.3072 62.333 77.0989 60.501 82.8677C58.633 88.7474 60.9125 95.495 67.0945 102.383C72.2086 108.083 78.6192 112.407 82.9137 114.557C84.0305 115.118 85.1507 115.624 86.2643 116.074C86.9664 116.361 87.0285 117.324 86.3688 117.696C83.8509 119.128 81.7674 121.412 80.3893 124.372L75.249 135.371H68.8547V120.828C68.8547 118.156 66.6863 115.993 64.0149 115.993H57.797C55.1223 115.993 52.9572 118.159 52.9572 120.828V166.473C52.9572 169.145 55.1256 171.308 57.797 171.308H64.0149C66.6895 171.308 68.8547 169.142 68.8547 166.473V150.628H76.3757L82.2507 163.112C84.6968 168.362 89.3569 171.498 94.7193 171.498C95.1144 171.498 95.5096 171.449 95.895 171.354L98.3802 170.734C100.536 170.196 102.048 168.261 102.048 166.042V164.094C102.328 164.394 102.619 164.691 102.92 164.982C107.279 169.184 112.978 171.501 118.964 171.501C124.924 171.501 130.603 169.184 134.956 164.978C135.717 164.244 136.419 163.464 137.059 162.655V179.958C137.059 182.631 139.228 184.794 141.899 184.794H148.117C150.792 184.794 152.957 182.627 152.957 179.958V171.073C154.345 171.354 155.69 171.501 156.944 171.501C163.231 171.501 169.002 169.158 173.198 164.903C174.703 163.376 175.961 161.65 176.95 159.784C178.018 161.666 179.373 163.419 180.997 164.982C185.356 169.184 191.055 171.501 197.041 171.501C203.001 171.501 208.68 169.184 213.033 164.978C213.794 164.244 214.496 163.464 215.136 162.655V166.479C215.136 169.152 217.305 171.315 219.976 171.315H240.678C245.488 171.315 249.792 169.099 252.62 165.634V166.476C252.62 169.148 254.789 171.312 257.46 171.312H276.297C280.35 171.312 284.056 169.801 286.884 167.311C287.283 169.582 289.265 171.312 291.652 171.312H297.87C300.545 171.312 302.71 169.145 302.71 166.476V131.69C302.687 129.018 300.519 126.855 297.848 126.855ZM216.129 107.287L217.978 102.507H218.758C219.699 102.507 220.571 102.236 221.312 101.773V115.581C220.878 115.454 220.417 115.382 219.937 115.382H219.117L215.878 108.377C215.858 108.331 215.835 108.289 215.812 108.243C215.793 108.201 215.77 108.158 215.747 108.116C215.891 107.848 216.021 107.571 216.129 107.287ZM108.285 109.773H120.29C121.005 109.773 122.285 111.281 122.285 112.762C122.285 114.244 120.986 115.813 120.29 115.813H108.285V109.773ZM96.0092 149.02C96.0092 151.284 96.3554 153.499 97.0281 155.611H96.3032L90.709 143.473C90.4706 142.947 90.1734 142.435 89.837 141.949L94.4384 131.87H94.6964C95.6761 131.87 96.584 131.576 97.3449 131.08H102.835C103.674 131.08 104.059 132.111 103.436 132.672C103.256 132.832 103.08 132.999 102.903 133.165C98.4585 137.43 96.0092 143.061 96.0092 149.02ZM118.941 155.611C115.13 155.611 111.91 152.592 111.91 149.02C111.91 145.574 115.195 142.552 118.941 142.552C122.654 142.552 125.91 145.574 125.91 149.02C125.91 152.592 122.72 155.611 118.941 155.611ZM157.545 155.611C155.854 155.611 154.407 155.34 152.937 154.713V143.845C154.587 142.983 156.056 142.585 157.588 142.549C161.043 142.572 163.646 145.372 163.646 149.078C163.642 152.866 161.079 155.611 157.545 155.611ZM197.018 155.611C193.207 155.611 189.987 152.592 189.987 149.02C189.987 145.574 193.272 142.552 197.018 142.552C200.731 142.552 203.987 145.574 203.987 149.02C203.987 152.592 200.797 155.611 197.018 155.611ZM213.001 133.168C208.843 129.171 203.488 126.891 197.838 126.688C197.851 126.541 197.861 126.391 197.861 126.241V115.862H201.796L205.042 122.88C207.122 127.344 210.806 130.281 215.159 131.057C215.133 131.266 215.114 131.475 215.114 131.694V135.492C214.47 134.679 213.765 133.903 213.001 133.168Z" fill="url(#paint0_linear)"/>
<path d="M140.181 91.4588H146.399V104.005H159.018C165.174 104.005 170.207 108.912 170.207 115.059C170.207 121.272 165.171 126.238 159.018 126.238H140.181V91.4588ZM159.018 120.218C161.879 120.218 164.178 117.921 164.178 115.063C164.178 112.204 161.879 110.031 159.018 110.031H146.399V120.218H159.018ZM174.37 91.4588H180.588V126.241H174.37V91.4588Z" fill="url(#paint1_linear)"/>
<path d="M193.021 111.023V126.241H186.803V91.4588H193.021V105.248H203.651C204.523 105.124 205.578 104.005 206.136 102.513L208.249 97.0481C209.866 93.4459 212.974 91.4588 216.332 91.4588L218.755 92.0788V97.6681H216.332C215.336 97.6681 214.343 98.5393 213.722 100.089L211.609 105.554C211.237 106.55 209.745 107.79 209.186 108.1C209.745 108.286 211.051 109.529 211.485 110.397L214.905 117.787C215.587 119.34 216.521 120.208 217.514 120.208H219.937V125.797L217.514 126.417C214.095 126.417 211.11 124.43 209.431 120.828L206.012 113.438C205.329 112.008 204.52 111.141 203.527 111.017H193.021V111.023Z" fill="url(#paint2_linear)"/>
<path d="M97.1849 166.039L94.6997 166.659C91.3426 166.659 88.2956 164.672 86.617 161.069L80.7126 148.524C80.0921 146.97 78.9099 145.789 77.4795 145.789H63.9888V166.473H57.7709V120.822H63.9888V140.2H76.3594C77.6036 140.2 78.8446 139.267 79.4684 137.717L84.7523 126.414C86.4309 122.812 89.4778 120.825 92.835 120.825L94.6997 121.445V127.034H92.835C91.839 127.034 90.9082 127.902 90.2257 129.455L85.0658 140.758C84.6935 141.502 84.0077 142.187 83.5113 142.435C84.3833 142.931 85.7484 144.236 86.3101 145.479L92.0904 158.025C92.7729 159.578 93.7069 160.446 94.703 160.446H97.1882V166.039H97.1849Z" fill="url(#paint3_linear)"/>
<path d="M136.968 149.019C136.968 158.772 128.575 166.659 118.941 166.659C109.242 166.659 100.852 158.769 100.852 149.019C100.852 139.391 109.245 131.504 118.941 131.504C128.575 131.504 136.968 139.394 136.968 149.019ZM107.067 149.019C107.067 155.356 112.599 160.449 118.941 160.449C125.283 160.449 130.753 155.356 130.753 149.019C130.753 142.807 125.283 137.714 118.941 137.714C112.599 137.714 107.067 142.81 107.067 149.019Z" fill="url(#paint4_linear)"/>
<path d="M174.7 149.081C174.7 158.772 167.365 166.659 156.922 166.659C154.498 166.659 151.203 165.853 148.094 164.3V179.952H141.876V131.69H146.85L147.595 135.416C150.89 133.181 155.553 131.504 158.783 131.504C167.365 131.504 174.7 139.394 174.7 149.081ZM148.094 141.133V157.591C151.203 159.578 154.061 160.449 157.542 160.449C163.822 160.449 168.482 155.418 168.482 149.081C168.482 142.869 163.881 137.714 157.542 137.714C154.126 137.779 151.203 139.019 148.094 141.133Z" fill="url(#paint5_linear)"/>
<path d="M215.045 149.019C215.045 158.772 206.652 166.659 197.018 166.659C187.319 166.659 178.929 158.769 178.929 149.019C178.929 139.391 187.322 131.504 197.018 131.504C206.652 131.504 215.045 139.394 215.045 149.019ZM185.144 149.019C185.144 155.356 190.676 160.449 197.018 160.449C203.36 160.449 208.83 155.356 208.83 149.019C208.83 142.807 203.36 137.714 197.018 137.714C190.676 137.714 185.144 142.81 185.144 149.019Z" fill="url(#paint6_linear)"/>
<path d="M240.655 166.473H219.953V131.69H239.411C244.943 131.69 249.42 136.102 249.42 141.567C249.42 143.554 248.238 146.536 246.063 147.652C248.672 148.772 251.223 152.436 251.223 155.914C251.223 161.751 246.5 166.473 240.655 166.473ZM226.171 137.717V145.417H240.158C241.651 145.293 243.205 143.678 243.205 141.567C243.205 139.518 241.465 137.717 239.414 137.717H226.171ZM226.171 151.444V160.449H240.655C243.078 160.449 245.008 158.276 245.008 155.914C245.008 153.493 243.081 151.441 240.655 151.441H226.171V151.444Z" fill="url(#paint7_linear)"/>
<path d="M257.437 131.69H263.655V144.236H276.274C282.43 144.236 287.462 149.143 287.462 155.291C287.462 161.503 282.427 166.469 276.274 166.469H257.437V131.69ZM276.274 160.449C279.135 160.449 281.434 158.152 281.434 155.294C281.434 152.436 279.135 150.263 276.274 150.263H263.655V160.449H276.274ZM291.629 131.69H297.847V166.473H291.629V131.69Z" fill="url(#paint8_linear)"/>
<path d="M120.29 99.3485H103.442V86.1795H129.676V80.5902H97.2241V93.2143C94.2196 94.0398 91.558 93.074 85.216 90.4049C71.3562 84.5709 77.953 77.8983 79.0144 74.5995C83.3937 61.0193 81.3788 56.1544 79.8014 55.7171C78.2241 55.2799 79.0144 55.8509 78.3123 60.3211C77.6101 64.7912 68.0677 74.9519 65.0893 84.3294C62.111 93.7037 76.2973 105.848 85.0527 110.23C89.788 112.599 94.1445 113.731 97.2208 113.862V126.248H120.283C127.494 126.248 133.336 119.973 133.336 112.769C133.343 105.558 127.501 99.3485 120.29 99.3485ZM120.29 120.652H103.442V104.938H120.29C124.081 104.938 127.128 108.974 127.128 112.762C127.128 116.55 124.081 120.652 120.29 120.652Z" fill="url(#paint9_linear)"/>
<path d="M289.794 84.3229C286.816 74.9486 277.273 64.7847 276.571 60.3145C275.869 55.8444 276.659 55.2734 275.082 55.7106C273.505 56.1478 271.493 61.0128 275.869 74.5929C276.934 77.8917 283.527 84.5643 269.668 90.3984C263.374 93.0479 260.706 94.0202 257.731 93.2273V91.4556H246.419L233.614 120.463H232.37V91.4556H226.152V126.238H237.03L249.711 97.2309H251.513V126.238H257.731V113.849C260.801 113.702 265.128 112.573 269.828 110.22C278.586 105.842 292.773 93.6972 289.794 84.3229Z" fill="url(#paint10_linear)"/>
<path d="M29.0161 99.2311L26.2761 102.739L0.473633 82.6197L3.21358 79.1121L29.0161 99.2311Z" fill="url(#paint11_linear)"/>
<path d="M353.561 90.4473C356.484 89.3967 356.474 86.0979 355.628 83.7519L360.327 82.0617C362.114 87.0148 360.993 93.074 355.252 95.1394C352.852 96.004 350.533 95.9551 344.502 93.9419C339.479 92.2746 338.355 92.2648 337.258 92.6596C334.335 93.7102 334.345 97.009 335.191 99.355L330.492 101.045C328.705 96.0921 329.825 90.033 335.566 87.9675C337.967 87.1029 340.233 87.1714 346.53 89.2662C351.343 90.8324 352.467 90.8389 353.561 90.4473Z" fill="url(#paint12_linear)"/>
<path d="M68.7175 202.59C68.7175 211.895 60.7197 219.433 51.4059 219.433C42.1378 219.433 34.14 211.895 34.14 202.59C34.14 193.33 42.1378 185.792 51.4059 185.792C60.7197 185.792 68.7175 193.326 68.7175 202.59ZM38.6826 202.59C38.6826 209.899 45.1357 214.894 51.4059 214.894C58.7668 214.894 64.1749 208.812 64.1749 202.59C64.1749 195.144 57.5422 190.331 51.4059 190.331C44.1364 190.331 38.6826 196.367 38.6826 202.59Z" fill="url(#paint13_linear)"/>
<path d="M298.608 211.448L294.784 209.168L311.57 181.097L315.394 183.378L298.608 211.448Z" fill="url(#paint14_linear)"/>
<path d="M243.467 16.7974C243.467 26.1031 235.469 33.6404 226.155 33.6404C216.887 33.6404 208.889 26.1031 208.889 16.7974C208.889 7.53728 216.887 0 226.155 0C235.472 0 243.467 7.53728 243.467 16.7974ZM213.435 16.7974C213.435 24.1062 219.888 29.1017 226.158 29.1017C233.519 29.1017 238.927 23.0197 238.927 16.7974C238.927 9.35145 232.295 4.53868 226.158 4.53868C218.885 4.53868 213.435 10.5783 213.435 16.7974Z" fill="url(#paint15_linear)"/>
<path d="M79.2136 56.8461C78.4886 57.8119 81.3918 59.0224 74.1288 69.9074C69.6581 76.6062 66.1409 80.5477 66.1409 85.6281C66.1409 90.7084 71.9506 100.866 82.3585 104.249C82.3585 104.249 86.2316 106.184 88.6515 103.525C91.0714 100.866 81.6335 95.0611 77.5154 92.3986C74.8669 90.6855 71.2223 88.0459 71.464 82.7241C71.7057 77.4023 76.4442 71.1278 78.482 66.762C80.1835 64.0995 81.3918 56.1185 79.2136 56.8461Z" fill="url(#paint16_linear)"/>
<path d="M275.418 56.696C276.143 57.6618 273.24 58.8724 280.503 69.7574C284.974 76.4561 288.491 80.3977 288.491 85.478C288.491 90.5583 282.681 100.716 272.273 104.099C272.273 104.099 268.4 106.034 265.98 103.375C263.561 100.716 272.998 94.911 277.117 92.2485C279.765 90.5355 283.41 87.8958 283.168 82.574C282.926 77.2522 278.188 70.9777 276.15 66.6119C274.448 63.9527 273.237 55.9717 275.418 56.696Z" fill="url(#paint17_linear)"/>
<defs>
<linearGradient id="paint0_linear" x1="172.16" y1="113.156" x2="447.572" y2="222.33" gradientUnits="userSpaceOnUse">
<stop stop-color="#F2F2F2"/>
<stop offset="1" stop-color="#A49790"/>
</linearGradient>
<linearGradient id="paint1_linear" x1="160.182" y1="93.5382" x2="160.848" y2="143.92" gradientUnits="userSpaceOnUse">
<stop stop-color="#FF2F01"/>
<stop offset="1" stop-color="#222222"/>
</linearGradient>
<linearGradient id="paint2_linear" x1="203.371" y1="94.6494" x2="203.371" y2="144.498" gradientUnits="userSpaceOnUse">
<stop stop-color="#FF2F01"/>
<stop offset="1" stop-color="#222222"/>
</linearGradient>
<linearGradient id="paint3_linear" x1="77.3794" y1="124.909" x2="77.514" y2="177.878" gradientUnits="userSpaceOnUse">
<stop stop-color="#FF2F01"/>
<stop offset="1" stop-color="#222222"/>
</linearGradient>
<linearGradient id="paint4_linear" x1="119.013" y1="128.626" x2="118.749" y2="180.661" gradientUnits="userSpaceOnUse">
<stop stop-color="#FF2F01"/>
<stop offset="1" stop-color="#222222"/>
</linearGradient>
<linearGradient id="paint5_linear" x1="158.31" y1="131.354" x2="158.2" y2="180.818" gradientUnits="userSpaceOnUse">
<stop stop-color="#FF2F01"/>
<stop offset="1" stop-color="#222222"/>
</linearGradient>
<linearGradient id="paint6_linear" x1="196.922" y1="135.064" x2="197.13" y2="180.758" gradientUnits="userSpaceOnUse">
<stop stop-color="#FF2F01"/>
<stop offset="1" stop-color="#222222"/>
</linearGradient>
<linearGradient id="paint7_linear" x1="235.395" y1="133.251" x2="235.74" y2="183.062" gradientUnits="userSpaceOnUse">
<stop stop-color="#FF2F01"/>
<stop offset="1" stop-color="#222222"/>
</linearGradient>
<linearGradient id="paint8_linear" x1="277.528" y1="132.131" x2="277.885" y2="185.013" gradientUnits="userSpaceOnUse">
<stop stop-color="#FF2F01"/>
<stop offset="1" stop-color="#222222"/>
</linearGradient>
<linearGradient id="paint9_linear" x1="99.0181" y1="83.8474" x2="99.0181" y2="148.045" gradientUnits="userSpaceOnUse">
<stop stop-color="#FF2F01"/>
<stop offset="1" stop-color="#222222"/>
</linearGradient>
<linearGradient id="paint10_linear" x1="258.175" y1="83.8474" x2="258.175" y2="148.045" gradientUnits="userSpaceOnUse">
<stop stop-color="#FF2F01"/>
<stop offset="1" stop-color="#222222"/>
</linearGradient>
<linearGradient id="paint11_linear" x1="21.0185" y1="92.0946" x2="-6.32687" y2="87.2041" gradientUnits="userSpaceOnUse">
<stop stop-color="#FF2F01"/>
<stop offset="1" stop-color="#222222"/>
</linearGradient>
<linearGradient id="paint12_linear" x1="331.335" y1="88.437" x2="380.488" y2="99.4932" gradientUnits="userSpaceOnUse">
<stop stop-color="#FF2F01"/>
<stop offset="1" stop-color="#222222"/>
</linearGradient>
<linearGradient id="paint13_linear" x1="41.1573" y1="185.634" x2="69.8276" y2="233.092" gradientUnits="userSpaceOnUse">
<stop stop-color="#FF2F01"/>
<stop offset="1" stop-color="#222222"/>
</linearGradient>
<linearGradient id="paint14_linear" x1="304.744" y1="202.703" x2="306.204" y2="174.983" gradientUnits="userSpaceOnUse">
<stop stop-color="#FF2F01"/>
<stop offset="1" stop-color="#222222"/>
</linearGradient>
<linearGradient id="paint15_linear" x1="215.909" y1="-0.156683" x2="244.579" y2="47.3008" gradientUnits="userSpaceOnUse">
<stop stop-color="#FF2F01"/>
<stop offset="1" stop-color="#222222"/>
</linearGradient>
<linearGradient id="paint16_linear" x1="78.679" y1="71.5934" x2="77.4351" y2="97.3003" gradientUnits="userSpaceOnUse">
<stop stop-color="#F2F2F2" stop-opacity="0.8"/>
<stop offset="1" stop-color="white" stop-opacity="0"/>
</linearGradient>
<linearGradient id="paint17_linear" x1="275.952" y1="71.445" x2="277.196" y2="97.1518" gradientUnits="userSpaceOnUse">
<stop stop-color="#F2F2F2" stop-opacity="0.8"/>
<stop offset="1" stop-color="white" stop-opacity="0"/>
</linearGradient>
</defs>
</svg>
