<svg width="375" height="445" viewBox="0 0 375 445" fill="none" xmlns="http://www.w3.org/2000/svg">
<path d="M536.886 178.278C534.76 170.885 529.702 165.941 522.24 163.964C510.646 160.897 495.728 165.85 488.603 172.509L472.823 178.66C478.293 162.208 478.593 141.724 469.968 132.428C466.592 128.787 460.41 125.263 450.139 129.136C450.087 129.155 450.034 129.178 449.982 129.201C447.249 130.399 442.223 135.091 434.245 142.651C430.845 145.871 427.347 149.186 424.447 151.741C411.623 146.047 393.39 143.166 372.777 143.604C353.032 144.024 334.228 147.477 320.744 153.118C317.652 150.443 313.889 146.879 310.238 143.418C302.59 136.171 297.767 131.668 295.082 130.503C295.033 130.48 294.984 130.461 294.932 130.441C284.661 126.571 278.479 130.095 275.099 133.737C266.481 143.023 266.781 163.51 272.248 179.968L256.311 173.756C253.219 171.345 247.259 167.331 239.66 165.279C231.619 163.109 223.991 163.873 217.59 167.488C212.848 169.958 209.71 173.912 208.263 179.247C204.475 193.212 213.661 212.976 219.043 221.476C219.089 221.547 219.138 221.616 219.187 221.685C225.78 230.498 238.866 247.99 253.624 251.543C249.476 265.505 252.533 289.843 260.465 301.051C263.013 305.188 265.527 306.885 267.552 308.249C268.963 309.202 269.815 309.776 270.527 311.029C270.641 311.231 270.775 311.417 270.929 311.59C274.985 316.139 274.09 322.175 273.052 329.164C272.186 334.992 271.295 340.995 273.558 346.425C269.985 353.854 267.911 361.317 267.386 368.639C266.641 379.044 269.009 389.244 274.42 398.961C274.426 398.974 274.436 398.987 274.443 399C281.337 410.978 297.809 413.073 309.226 414.306C311.584 422.055 319.663 426.509 331.531 426.509C332.106 426.509 332.694 426.499 333.288 426.477C339.209 426.421 345.384 426.023 351.919 425.602C358.79 425.162 365.893 424.705 372.744 424.672C372.849 424.672 372.95 424.666 373.055 424.656C378.319 424.131 385.079 424.64 392.234 425.181C401.414 425.873 410.904 426.591 418.7 425.224C427.416 423.697 432.85 419.625 434.885 413.105C446.406 411.875 463.61 409.95 470.625 397.688C470.631 397.675 470.638 397.665 470.644 397.652C479.922 380.946 480.21 363.281 471.506 345.126C473.773 339.697 472.881 333.69 472.016 327.862C470.977 320.87 470.083 314.833 474.139 310.285C474.292 310.112 474.429 309.923 474.544 309.724C475.252 308.474 476.105 307.9 477.515 306.944C479.54 305.577 482.055 303.88 484.602 299.743C488.782 293.83 491.806 284.169 492.907 273.199C493.811 264.203 493.246 256.004 491.369 249.961C500.643 247.745 504.768 245.03 515.372 233.297C515.385 233.284 515.398 233.268 515.411 233.255C521.851 225.864 525.397 221.12 526.518 219.42C529.071 215.857 532.654 207.674 535.058 199.898C538.222 189.669 538.836 182.396 536.886 178.278Z" fill="url(#paint0_linear)"/>
<path d="M522.716 176.989C511.172 170.434 496.48 183.28 496.48 183.28L459.485 197.699C458.96 194.815 454.502 189.31 454.502 189.31C469.456 169.648 464.998 150.25 463.946 143.959C462.898 137.668 456.337 140.553 456.337 140.553C456.337 140.553 440.071 154.971 434.561 160.737C429.052 166.502 423.517 164.408 423.517 164.408C402.058 153.314 354.662 152.394 324.239 165.713C324.239 165.713 318.703 167.811 313.194 162.042C307.685 156.277 291.418 141.858 291.418 141.858C291.418 141.858 284.857 138.973 283.809 145.264C282.761 151.555 278.3 170.953 293.253 190.615C293.253 190.615 288.792 196.12 288.27 199.004L251.276 184.585C251.276 184.585 236.583 171.739 225.039 178.295C213.495 184.85 230.548 214.209 230.548 214.209C230.548 214.209 248.389 238.325 255.472 238.325C255.472 238.325 271.213 243.569 275.674 238.325C275.674 238.325 261.243 254.578 266.491 278.172C271.739 301.766 278.035 296.783 281.183 302.288C284.331 307.792 290.105 314.347 287.218 327.976C284.331 341.609 286.467 344.754 290.517 342.131C294.566 339.511 306.898 328.763 316.342 325.353C325.787 321.947 336.309 310.168 340.218 304.904C347.298 295.377 401.137 296.294 407.537 303.599C411.858 308.53 421.969 320.638 431.413 324.048C440.858 327.454 453.189 338.202 457.239 340.826C461.288 343.446 463.424 340.3 460.537 326.671C457.65 313.039 463.424 306.487 466.572 300.982C469.72 295.478 476.017 300.457 481.265 276.866C486.513 253.273 472.081 237.02 472.081 237.02C476.542 242.264 492.283 237.02 492.283 237.02C499.366 237.02 517.207 212.904 517.207 212.904C517.207 212.904 534.261 183.545 522.716 176.989Z" fill="url(#paint1_linear)"/>
<path d="M443.219 337.945C424.761 336.829 406.381 316.449 401.133 309.632C396.548 303.678 353.738 301.818 347.298 309.89C341.936 316.615 322.991 338.137 304.533 339.25C286.075 340.366 282.493 361.532 282.493 361.532C282.493 361.532 274.884 396.396 299.546 400.067C324.209 403.737 326.309 403.917 336.015 397.799C345.724 391.681 402.515 390.683 411.731 396.494C421.44 402.612 423.536 402.432 448.199 398.761C472.862 395.091 465.253 360.227 465.253 360.227C465.253 360.227 461.677 339.06 443.219 337.945Z" fill="url(#paint2_linear)"/>
<path d="M322.374 410.028C323.367 417.217 347.696 412.41 373.985 412.159C400.275 411.908 424.604 416.296 424.457 408.723C424.349 403.127 398.165 399.104 373.525 399.287C348.64 399.47 321.535 403.953 322.374 410.028Z" fill="url(#paint3_linear)"/>
<path d="M280.657 240.723C287.934 225.499 292.071 209.266 292.463 201.402C292.855 193.539 309.386 185.28 314.895 188.034C320.405 190.788 320.8 208.874 322.374 217.919C323.948 226.964 334.179 266.285 337.723 269.036C341.266 271.789 342.053 294.594 321.587 305.603C301.12 316.612 304.664 320.938 300.333 322.903C296.003 324.87 291.676 323.297 288.92 309.14C286.163 294.985 275.145 297.344 272.784 288.691C270.426 280.045 265.847 259.978 280.657 240.723Z" fill="url(#paint4_linear)"/>
<path d="M287.933 144.119C281.242 146.478 285.772 195.996 300.729 187.493C315.686 178.99 325.254 175.172 317.384 168.486C305.578 159.836 294.625 141.76 287.933 144.119Z" fill="url(#paint5_linear)"/>
<path d="M325.506 348.464C316.453 352.004 325.111 363.405 338.885 363.013C349.904 363.023 334.555 344.924 325.506 348.464Z" fill="#272727"/>
<path d="M297.28 260.581C288.227 264.122 296.885 275.522 310.66 275.131C321.682 275.137 306.333 257.041 297.28 260.581Z" fill="white"/>
<path d="M246.051 107.539C246.034 107.477 246.015 107.411 245.995 107.35C239.934 88.2551 227.488 69.6533 216.506 53.2312C216.499 53.2214 216.493 53.2116 216.486 53.2051L215.35 51.5247C205.641 37.181 200.288 29.2783 200.588 18.4977C200.817 12.184 198.515 6.76434 194.266 3.62544C190.305 0.695366 185.027 0.0591068 179.789 1.87654C179.515 1.97116 179.247 2.08536 178.989 2.21587C169.296 7.10368 164.411 16.1582 164.061 29.895C163.754 41.8959 166.873 58.5105 173.872 82.1828C173.914 82.3231 173.96 82.4602 174.009 82.5972C175.152 85.6839 176.657 88.7771 178.248 92.0531C182.166 100.112 186.213 108.439 183.999 115.259C178.911 121.967 170.825 126.907 159.316 130.353C148.105 133.707 135.218 135.241 122.753 136.722C107.986 138.477 93.9037 140.151 83.2835 144.794C78.2249 138.585 69.9006 133.537 58.4248 129.736C46.0641 125.641 30.5323 123.175 13.5048 122.6C-5.86426 121.948 -25.2268 123.824 -41.0165 127.883C-55.954 131.723 -66.6884 137.159 -73.0435 144.086C-78.2099 141.835 -84.823 140.885 -93.6045 139.861C-100.126 138.415 -107.837 137.378 -115.991 136.278C-138.254 133.276 -165.963 129.537 -172.341 116.006C-175.793 108.684 -173.105 97.8447 -164.356 83.7816C-164.049 83.2857 -163.808 82.7538 -163.641 82.1959C-156.636 58.6443 -153.524 42.0166 -153.851 29.8656C-154.22 16.0081 -159.118 6.95358 -168.821 2.1865C-169.059 2.06903 -169.301 1.96788 -169.552 1.87978C-174.859 0.0297241 -179.983 0.63336 -183.98 3.57323C-188.242 6.7056 -190.567 12.1416 -190.361 18.4846C-190.058 29.3174 -195.456 37.2756 -205.25 51.7237L-206.112 52.9995C-231.02 84.3396 -240.216 111.115 -234.236 134.852C-230.497 149.699 -220.991 163.037 -205.172 175.635C-194.078 184.471 -179.732 193.017 -161.568 201.582C-171.103 205.934 -178.892 210.326 -184.82 214.695C-193.575 221.149 -198.444 227.744 -199.293 234.296C-200.087 240.417 -197.386 246.058 -191.697 250.186C-184.055 255.726 -170.738 258.578 -155.157 258.007C-142.564 257.544 -129.423 254.907 -117.196 250.457C-118.398 270.755 -113.653 291.014 -104.025 305.319C-104.006 305.345 -103.986 305.374 -103.97 305.4C-94.0421 319.666 -89.1468 328.277 -85.9072 333.97C-83.9216 337.462 -82.4063 340.124 -80.6559 342.291C-85.3684 346.134 -89.1207 351.293 -91.73 357.587C-95.4007 366.439 -96.4816 377.027 -94.7671 387.394C-92.9971 398.122 -88.301 407.966 -81.5475 415.112C-74.9637 422.078 -66.6198 426.418 -57.1753 427.844C-56.5157 429.769 -55.4478 431.567 -53.9913 433.192C-44.7427 443.502 -20.7952 444.997 4.29541 444.997C6.70879 444.997 9.13849 444.984 11.5617 444.961C12.5055 444.954 13.41 444.945 14.2722 444.938C14.3898 444.938 14.5106 444.935 14.6282 444.925C30.3657 443.956 40.4796 443.192 48.1802 440.784C55.6849 438.438 60.5704 434.383 62.9838 428.46C72.9835 428.121 82.0164 424.392 89.3513 417.52C96.722 410.616 102.071 400.674 104.413 389.528C106.692 378.678 105.99 367.572 102.437 358.256C99.8604 351.502 95.8337 345.929 90.7196 341.899C92.5647 339.459 94.3413 336.411 96.4999 332.708C100.125 326.489 105.092 317.969 113.821 305.387C113.838 305.361 113.857 305.335 113.874 305.309C123.445 291.083 128.187 270.974 127.061 250.789C136.966 254.401 148.703 256.757 160.763 257.462C177.604 258.447 192.052 256.092 200.399 250.998C208.358 246.143 209.354 239.777 209.239 236.416C209.043 230.67 205.729 224.928 199.106 218.862C193.201 213.452 184.459 207.67 173.101 201.663C190.892 193.464 208.155 182.053 221.3 169.579C231.221 160.166 238.471 150.485 242.847 140.804C248 129.39 249.081 118.199 246.051 107.539Z" fill="url(#paint6_linear)" fill-opacity="0.2"/>
<path d="M89.2305 156.166C73.4995 165.373 94.7822 192.961 105.259 196.854C113.57 199.941 136.721 206.062 166.396 191.209C196.075 176.36 244.153 143.395 234.065 111.621C223.974 79.8433 191.624 45.397 189.25 30.2506C186.876 15.1043 189.547 13.1694 184.201 14.6507C178.855 16.1321 172.033 32.6228 186.872 78.6524C190.478 89.8343 218.628 125.276 169.956 140.422C131.159 152.501 94.4622 153.105 89.2305 156.166Z" fill="url(#paint7_linear)"/>
<path d="M83.7799 353.336C83.7799 353.336 70.299 340.65 72.2258 357.535C74.1525 374.414 60.6716 394.164 51.6484 392.353C42.6252 390.549 41.9035 386.209 41.8512 373.928C41.799 361.646 64.6525 351.166 68.9829 344.307C73.3132 337.442 66.452 333.468 58.1505 326.968C49.8457 320.462 -38.4758 320.462 -46.7806 326.968C-55.0853 333.474 -61.9466 337.449 -57.613 344.307C-53.2794 351.166 -30.4258 361.646 -30.4813 373.928C-30.5336 386.209 -31.2553 390.546 -40.2785 392.353C-49.3017 394.158 -62.7826 374.411 -60.8559 357.535C-58.9291 340.656 -72.41 353.336 -72.41 353.336C-72.41 353.336 -85.7668 367.063 -81.7957 385.129C-77.8246 403.196 -66.9921 417.282 -44.9714 415.477C-22.944 413.673 34.327 413.673 56.3543 415.477C78.3816 417.282 89.2075 403.196 93.1786 385.129C97.1498 367.063 83.7799 353.336 83.7799 353.336Z" fill="url(#paint8_linear)"/>
<path d="M51.2794 420.443C51.2794 420.443 44.3985 417.18 34.3336 418.632C24.2751 420.081 4.31503 418.769 4.31503 418.769C4.31503 418.769 -16.6672 420.081 -26.7257 418.632C-36.7841 417.184 -43.6715 420.443 -43.6715 420.443C-43.6715 420.443 -52.6719 430.77 -7.1346 432.219H2.03556H5.57233H14.7425C60.2798 430.767 51.2794 420.443 51.2794 420.443Z" fill="url(#paint9_linear)"/>
<path d="M75.8736 253.915C75.8736 253.915 85.8177 264.902 73.7933 268.765C62.458 272.406 56.7266 260.895 58.9506 258.076C55.711 256.516 18.0996 254.93 4.66116 253.501C-8.78056 254.93 -44.844 256.516 -48.0836 258.076C-45.8596 260.895 -51.5877 272.406 -62.9263 268.765C-74.9442 264.905 -65.0066 253.915 -65.0066 253.915C-65.0066 253.915 -78.9545 243.82 -76.8807 241.657C-74.8005 239.493 -63.8211 248.571 -63.8211 248.571C-63.8211 248.571 -54.9155 258.372 -33.5511 252.728C-18.5647 248.77 -2.19359 249.223 5.41882 249.918C13.0378 249.223 29.4088 248.77 44.3887 252.728C65.7596 258.372 74.6588 248.571 74.6588 248.571C74.6588 248.571 85.6381 239.493 87.7184 241.657C89.8215 243.817 75.8736 253.915 75.8736 253.915ZM87.2383 284.025C85.6936 288.071 81.1086 295.367 68.4506 292.819C55.92 290.297 53.2976 282.319 52.798 278.168C52.6706 277.098 53.8332 276.354 54.7542 276.906C59.6037 279.806 72.4185 286.225 85.6479 282.322C86.6831 282.012 87.6204 283.017 87.2383 284.025ZM-57.5738 292.819C-70.2285 295.367 -74.8135 288.068 -76.3615 284.025C-76.7468 283.02 -75.8063 282.019 -74.7743 282.319C-61.5449 286.221 -48.7302 279.806 -43.8806 276.902C-42.9564 276.348 -41.7905 277.098 -41.9244 278.165C-42.4208 282.319 -45.0432 290.297 -57.5738 292.819ZM165.795 212.633C153.353 205.337 112.969 204.822 109.112 205.412C105.255 206.006 90.7098 198.077 81.507 181.743C72.3074 165.409 78.153 155.976 78.153 155.976C61.831 132.219 6.4214 137.678 6.4214 137.678C6.4214 137.678 -50.9607 132.213 -67.2828 155.976C-67.2828 155.976 -61.4371 165.409 -70.6367 181.743C-79.8395 198.077 -94.3785 206.659 -98.2419 206.065C-102.099 205.471 -142.489 205.334 -154.925 212.633C-167.367 219.929 -188.758 230.449 -185.492 239.063C-182.227 247.677 -126.138 249.455 -98.8297 226.292C-98.8297 226.292 -113.385 266.383 -92.6019 298.457C-71.8189 330.531 -69.1508 335.321 -69.1508 335.321C-69.1508 335.321 -67.6681 338.587 -63.5109 335.321C-59.3569 332.055 -44.8113 320.175 -40.6573 310.97C-36.5033 301.762 -29.3808 276.778 -37.0977 268.164C-38.8808 259.55 -20.4784 255.987 -8.01311 257.178C4.04395 258.327 5.42535 263.29 5.43842 263.58C5.45148 263.29 6.83289 258.324 18.8899 257.178C31.3552 255.991 49.7576 259.557 47.9745 268.164C40.2608 276.778 47.3834 301.762 51.5341 310.97C55.6849 320.178 70.2337 332.058 74.3877 335.321C78.5417 338.587 80.0276 335.321 80.0276 335.321C80.0276 335.321 82.699 330.528 103.479 298.457C124.255 266.389 109.703 226.292 109.703 226.292C137.005 249.455 193.103 247.677 196.366 239.063C199.635 230.455 178.238 219.929 165.795 212.633Z" fill="url(#paint10_linear)"/>
<path d="M-103.072 269.029C-102.876 270.556 -102.634 272.099 -102.34 273.653L-103.072 269.029ZM134.03 200.534C143.37 199.813 154.346 197.239 166.393 191.209C196.072 176.36 244.15 143.395 234.062 111.621C223.971 79.8433 191.621 45.397 189.247 30.2506C186.872 15.1043 189.544 13.1694 184.198 14.6507C178.852 16.1321 172.03 32.6228 186.869 78.6524C190.474 89.8343 218.625 125.276 169.953 140.422C131.156 152.498 94.4589 153.099 89.2272 156.162C88.2964 156.707 87.4996 157.317 86.817 157.983C66.243 132.738 6.4214 137.675 6.4214 137.675C6.4214 137.675 -53.0638 130.47 -76.4595 157.19C-76.92 156.828 -77.4164 156.482 -77.9617 156.162C-83.1934 153.099 -119.89 152.498 -158.687 140.422C-207.36 125.276 -179.209 89.831 -175.604 78.6524C-160.761 32.6228 -167.586 16.1321 -172.932 14.6507C-178.278 13.1694 -175.604 15.1043 -177.981 30.2506C-180.355 45.4002 -212.706 79.8466 -222.797 111.624C-232.888 143.398 -184.806 176.36 -155.128 191.212C-140.99 198.286 -128.339 200.6 -118.062 200.753C-130.618 203.51 -147.264 208.14 -154.922 212.636C-167.364 219.932 -188.755 230.452 -185.489 239.066C-182.223 247.68 -126.134 249.458 -98.8264 226.295C-98.8264 226.295 -106.021 246.114 -103.072 269.029L134.03 200.534ZM89.655 396.037C91.1703 392.66 92.3296 388.983 93.1787 385.126C97.1498 367.059 83.7832 353.332 83.7832 353.332L-81.7957 385.126C-78.8173 398.677 -71.9789 409.986 -59.4548 414.035L89.655 396.037Z" fill="url(#paint11_linear)"/>
<defs>
<linearGradient id="paint0_linear" x1="207.372" y1="276.98" x2="537.999" y2="276.98" gradientUnits="userSpaceOnUse">
<stop stop-color="#222222"/>
<stop offset="1"/>
</linearGradient>
<linearGradient id="paint1_linear" x1="221.025" y1="241.436" x2="526.726" y2="241.436" gradientUnits="userSpaceOnUse">
<stop stop-color="#F2F2F2"/>
<stop offset="1" stop-color="#A49790"/>
</linearGradient>
<linearGradient id="paint2_linear" x1="281.386" y1="353.565" x2="466.365" y2="353.565" gradientUnits="userSpaceOnUse">
<stop stop-color="#F2F2F2"/>
<stop offset="1" stop-color="#A49790"/>
</linearGradient>
<linearGradient id="paint3_linear" x1="322.355" y1="406.623" x2="424.457" y2="406.623" gradientUnits="userSpaceOnUse">
<stop stop-color="#F2F2F2"/>
<stop offset="1" stop-color="#A49790"/>
</linearGradient>
<linearGradient id="paint4_linear" x1="302.281" y1="251.519" x2="341.518" y2="308.775" gradientUnits="userSpaceOnUse">
<stop stop-color="#222222"/>
<stop offset="1"/>
</linearGradient>
<linearGradient id="paint5_linear" x1="289.118" y1="161.813" x2="344.413" y2="214.839" gradientUnits="userSpaceOnUse">
<stop stop-color="#222222"/>
<stop offset="1"/>
</linearGradient>
<linearGradient id="paint6_linear" x1="-216.099" y1="57.9948" x2="184.934" y2="283.896" gradientUnits="userSpaceOnUse">
<stop stop-color="#222222"/>
<stop offset="1"/>
</linearGradient>
<linearGradient id="paint7_linear" x1="-89.9275" y1="-56.7361" x2="266.031" y2="188.89" gradientUnits="userSpaceOnUse">
<stop stop-color="#FF2F01"/>
<stop offset="1" stop-color="#222222"/>
</linearGradient>
<linearGradient id="paint8_linear" x1="-286.939" y1="206.792" x2="137.142" y2="450.221" gradientUnits="userSpaceOnUse">
<stop stop-color="#FF2F01"/>
<stop offset="1" stop-color="#222222"/>
</linearGradient>
<linearGradient id="paint9_linear" x1="-211.917" y1="290.883" x2="41.4784" y2="446.102" gradientUnits="userSpaceOnUse">
<stop stop-color="#FF2F01"/>
<stop offset="1" stop-color="#222222"/>
</linearGradient>
<linearGradient id="paint10_linear" x1="-147.159" y1="138.515" x2="167.549" y2="355.782" gradientUnits="userSpaceOnUse">
<stop stop-color="#FF2F01"/>
<stop offset="1" stop-color="#222222"/>
</linearGradient>
<linearGradient id="paint11_linear" x1="11.7779" y1="144.53" x2="-5.22515" y2="78.1465" gradientUnits="userSpaceOnUse">
<stop stop-color="#F2F2F2" stop-opacity="0.1"/>
<stop offset="1" stop-color="#F2F2F2" stop-opacity="0.8"/>
</linearGradient>
</defs>
</svg>
