<svg width="299" height="161" viewBox="0 0 299 161" fill="none" xmlns="http://www.w3.org/2000/svg">
<defs>
<linearGradient id="paint0_linear" x1="81.5" y1="22" x2="264.364" y2="250.609" gradientUnits="userSpaceOnUse">
<stop offset="0.0339397" stop-color="#F2F2F2"/>
<stop offset="0.837021" stop-color="#CAC3C0"/>
</linearGradient>
<linearGradient id="paint1_linear" x1="128.025" y1="51.6835" x2="128.821" y2="111.839" gradientUnits="userSpaceOnUse">
<stop stop-color="#FF2F01"/>
<stop offset="1" stop-color="#222222"/>
</linearGradient>
<linearGradient id="paint2_linear" x1="179.592" y1="53.0102" x2="179.592" y2="112.529" gradientUnits="userSpaceOnUse">
<stop stop-color="#FF2F01"/>
<stop offset="1" stop-color="#222222"/>
</linearGradient>
<linearGradient id="paint3_linear" x1="29.1599" y1="89.1394" x2="29.3206" y2="152.385" gradientUnits="userSpaceOnUse">
<stop stop-color="#FF2F01"/>
<stop offset="1" stop-color="#222222"/>
</linearGradient>
<linearGradient id="paint4_linear" x1="78.87" y1="93.5778" x2="78.5549" y2="155.707" gradientUnits="userSpaceOnUse">
<stop stop-color="#FF2F01"/>
<stop offset="1" stop-color="#222222"/>
</linearGradient>
<linearGradient id="paint5_linear" x1="125.79" y1="96.8354" x2="125.659" y2="155.895" gradientUnits="userSpaceOnUse">
<stop stop-color="#FF2F01"/>
<stop offset="1" stop-color="#222222"/>
</linearGradient>
<linearGradient id="paint6_linear" x1="171.893" y1="101.265" x2="172.141" y2="155.823" gradientUnits="userSpaceOnUse">
<stop stop-color="#FF2F01"/>
<stop offset="1" stop-color="#222222"/>
</linearGradient>
<linearGradient id="paint7_linear" x1="217.829" y1="99.0995" x2="218.241" y2="158.574" gradientUnits="userSpaceOnUse">
<stop stop-color="#FF2F01"/>
<stop offset="1" stop-color="#222222"/>
</linearGradient>
<linearGradient id="paint8_linear" x1="268.135" y1="97.7628" x2="268.562" y2="160.903" gradientUnits="userSpaceOnUse">
<stop stop-color="#FF2F01"/>
<stop offset="1" stop-color="#222222"/>
</linearGradient>
<linearGradient id="paint9_linear" x1="54.9963" y1="40.1128" x2="54.9963" y2="116.764" gradientUnits="userSpaceOnUse">
<stop stop-color="#FF2F01"/>
<stop offset="1" stop-color="#222222"/>
</linearGradient>
<linearGradient id="paint10_linear" x1="245.028" y1="40.1128" x2="245.028" y2="116.764" gradientUnits="userSpaceOnUse">
<stop stop-color="#FF2F01"/>
<stop offset="1" stop-color="#222222"/>
</linearGradient>
<linearGradient id="paint11_linear" x1="30.7116" y1="25.4816" x2="29.2263" y2="56.1754" gradientUnits="userSpaceOnUse">
<stop stop-color="#F2F2F2" stop-opacity="0.8"/>
<stop offset="1" stop-color="white" stop-opacity="0"/>
</linearGradient>
<linearGradient id="paint12_linear" x1="266.254" y1="25.3044" x2="267.739" y2="55.9981" gradientUnits="userSpaceOnUse">
<stop stop-color="#F2F2F2" stop-opacity="0.8"/>
<stop offset="1" stop-color="white" stop-opacity="0"/>
</linearGradient>
</defs>
<path d="M292.396 91.463H284.972C281.779 91.463 279.193 94.0498 279.193 97.2366V111.106C275.832 108.203 271.438 106.443 266.642 106.443H257.354V97.2366C257.354 94.0459 254.765 91.463 251.575 91.463H250.234C250.265 91.2214 250.284 90.9799 250.284 90.7305V80.913C253.86 80.0949 257.709 78.6846 261.538 76.7678C266.661 74.2043 274.315 69.0384 280.425 62.2324C287.807 54.0121 290.528 45.9555 288.298 38.9313C286.111 32.0434 281.482 25.1283 277.766 19.5689C275.766 16.5769 273.025 12.4824 272.709 11.0954C272.471 9.56436 272.401 8.4852 272.354 7.69435C272.257 6.12821 272.093 3.5102 269.609 1.74148C267.145 -0.0116495 264.532 0.712979 263.678 0.950626C261.69 1.50384 259.986 2.93752 258.878 4.99063C256.16 10.0319 256.761 18.7274 260.664 30.8318C261.007 31.8993 261.514 32.8927 262.002 33.855C262.723 35.2731 263.62 37.0379 263.292 37.9301C263.16 38.2924 262.212 40.213 256.519 42.609C252.912 44.1284 250.592 45.0517 248.959 45.5036C247.898 44.2297 246.299 43.4193 244.513 43.4193H231.003C228.714 43.4193 226.639 44.7712 225.715 46.8632L220.011 59.7858V49.2008C220.011 46.0101 217.422 43.4271 214.232 43.4271H206.808C204.854 43.4271 203.127 44.4011 202.082 45.8854C201.364 45.1608 200.456 44.6192 199.415 44.3504L196.522 43.6102C196.054 43.4894 195.574 43.431 195.095 43.431C188.676 43.4271 182.956 47.2957 180.164 53.5174C180.121 53.6109 180.082 53.7044 180.047 53.7979L177.692 59.8949H173.037V49.2008C173.037 46.0101 170.447 43.4271 167.258 43.4271H159.834C158.422 43.4271 157.128 43.9336 156.122 44.7751C155.116 43.9336 153.825 43.4271 152.41 43.4271H144.985C141.792 43.4271 139.207 46.014 139.207 49.2008V63.07C135.846 60.1676 131.451 58.4067 126.655 58.4067H117.367V49.2008C117.367 46.0101 114.778 43.4271 111.588 43.4271H104.164C100.971 43.4271 98.3856 46.014 98.3856 49.2008V62.9453C97.5863 61.687 96.6621 60.4987 95.6054 59.4001C91.5346 55.1731 86.142 52.8473 80.4179 52.8473H66.0843V48.6748H91.6282C94.8217 48.6748 97.4069 46.088 97.4069 42.9012V36.2276C97.4069 33.0369 94.8178 30.4539 91.6282 30.4539H52.8815C49.688 30.4539 47.1028 33.0408 47.1028 36.2276V45.1218C45.6133 44.6114 43.6052 43.8089 40.7899 42.6246C35.097 40.2286 34.1495 38.308 34.017 37.9456C33.6894 37.0535 34.5862 35.2887 35.3076 33.8706C35.795 32.9083 36.3019 31.911 36.645 30.8474C40.5482 18.743 41.1487 10.0474 38.4309 5.00621C37.3235 2.9531 35.6195 1.51942 33.6309 0.966213C32.7731 0.728566 30.1606 0.00393718 27.6963 1.75707C25.2125 3.52579 25.0487 6.1438 24.9512 7.70993C24.9005 8.4969 24.8343 9.57605 24.5964 11.1071C24.2806 12.494 21.5394 16.5886 19.5391 19.5806C15.8192 25.14 11.1947 32.0551 9.00723 38.943C6.77687 45.9633 9.49854 54.0199 16.8798 62.2441C22.986 69.0501 30.6402 74.2121 35.7677 76.7795C37.1012 77.4496 38.4387 78.0534 39.7683 78.5911C40.6067 78.9339 40.6808 80.0832 39.8931 80.5273C36.8868 82.2376 34.3991 84.9647 32.7536 88.4982L26.6162 101.631H18.9815V84.2673C18.9815 81.0766 16.3924 78.4937 13.2028 78.4937H5.77868C2.5852 78.4937 0 81.0805 0 84.2673V138.766C0 141.957 2.5891 144.54 5.77868 144.54H13.2028C16.3963 144.54 18.9815 141.953 18.9815 138.766V119.848H27.9615L34.9762 134.754C37.8967 141.022 43.4609 144.766 49.8634 144.766C50.3353 144.766 50.8071 144.708 51.2672 144.595L54.2345 143.854C56.808 143.212 58.6134 140.901 58.6134 138.252V135.926C58.9487 136.285 59.2957 136.639 59.6545 136.986C64.86 142.004 71.6641 144.77 78.8114 144.77C85.9276 144.77 92.7083 142.004 97.906 136.982C98.8145 136.106 99.6528 135.174 100.417 134.208V154.868C100.417 158.059 103.006 160.642 106.196 160.642H113.62C116.813 160.642 119.399 158.055 119.399 154.868V144.26C121.056 144.595 122.662 144.77 124.16 144.77C131.666 144.77 138.556 141.973 143.566 136.893C145.364 135.069 146.865 133.008 148.046 130.78C149.321 133.028 150.94 135.12 152.877 136.986C158.083 142.004 164.887 144.77 172.034 144.77C179.151 144.77 185.931 142.004 191.129 136.982C192.038 136.106 192.876 135.174 193.64 134.208V138.774C193.64 141.965 196.229 144.548 199.419 144.548H224.136C229.88 144.548 235.019 141.903 238.396 137.765V138.77C238.396 141.961 240.985 144.544 244.174 144.544H266.665C271.504 144.544 275.93 142.74 279.306 139.768C279.782 142.479 282.149 144.544 284.999 144.544H292.423C295.617 144.544 298.202 141.957 298.202 138.77V97.2366C298.175 94.0459 295.586 91.463 292.396 91.463ZM194.825 68.0995L197.032 62.3921H197.964C199.087 62.3921 200.128 62.0688 201.014 61.5156V78.0028C200.495 77.8509 199.945 77.7652 199.372 77.7652H198.393L194.525 69.4007C194.502 69.3462 194.475 69.2956 194.447 69.241C194.424 69.1904 194.397 69.1397 194.369 69.0891C194.541 68.7696 194.697 68.4385 194.825 68.0995ZM66.0609 71.0682H80.3945C81.2484 71.0682 82.7769 72.8681 82.7769 74.6368C82.7769 76.4055 81.225 78.2794 80.3945 78.2794H66.0609V71.0682ZM51.4037 117.927C51.4037 120.631 51.817 123.277 52.6202 125.797H51.7546L45.0752 111.305C44.7906 110.677 44.4357 110.066 44.0341 109.485L49.5281 97.4509H49.8362C51.0059 97.4509 52.0899 97.1003 52.9985 96.5081H59.5531C60.5552 96.5081 61.0153 97.7392 60.2705 98.4093C60.0561 98.6002 59.8455 98.7989 59.635 98.9975C54.3281 104.089 51.4037 110.814 51.4037 117.927ZM78.7841 125.797C74.2337 125.797 70.389 122.193 70.389 117.927C70.389 113.813 74.3117 110.206 78.7841 110.206C83.2176 110.206 87.1051 113.813 87.1051 117.927C87.1051 122.193 83.2955 125.797 78.7841 125.797ZM124.877 125.797C122.857 125.797 121.13 125.474 119.375 124.726V111.749C121.344 110.72 123.099 110.245 124.928 110.202C129.053 110.229 132.161 113.572 132.161 117.998C132.157 122.521 129.096 125.797 124.877 125.797ZM172.007 125.797C167.457 125.797 163.612 122.193 163.612 117.927C163.612 113.813 167.535 110.206 172.007 110.206C176.441 110.206 180.328 113.813 180.328 117.927C180.328 122.193 176.519 125.797 172.007 125.797ZM191.09 99.0014C186.126 94.229 179.732 91.5058 172.986 91.2643C173.001 91.089 173.013 90.9098 173.013 90.7305V78.3378H177.712L181.588 86.7178C184.071 92.0473 188.47 95.5536 193.667 96.4808C193.636 96.7302 193.613 96.9795 193.613 97.2405V101.775C192.845 100.805 192.002 99.878 191.09 99.0014Z" fill="url(#paint0_linear)"/>
<path d="M104.145 49.2007H111.569V64.1803H126.636C133.986 64.1803 139.994 70.0396 139.994 77.3794C139.994 84.7971 133.982 90.7266 126.636 90.7266H104.145V49.2007ZM126.636 83.5388C130.051 83.5388 132.796 80.7961 132.796 77.3833C132.796 73.9706 130.051 71.3759 126.636 71.3759H111.569V83.5388H126.636ZM144.966 49.2007H152.39V90.7305H144.966V49.2007Z" fill="url(#paint1_linear)"/>
<path d="M167.234 72.5603V90.7305H159.81V49.2007H167.234V65.6646H179.926C180.968 65.5166 182.227 64.1803 182.894 62.3999L185.417 55.8743C187.347 51.5733 191.059 49.2007 195.067 49.2007L197.96 49.9409V56.6145H195.067C193.878 56.6145 192.693 57.6547 191.952 59.5052L189.429 66.0308C188.984 67.219 187.202 68.6995 186.536 69.0696C187.202 69.2916 188.762 70.776 189.281 71.8122L193.363 80.6364C194.178 82.4908 195.293 83.5271 196.479 83.5271H199.372V90.2007L196.479 90.9409C192.396 90.9409 188.832 88.5683 186.828 84.2673L182.746 75.4432C181.931 73.7368 180.964 72.7005 179.778 72.5525H167.234V72.5603Z" fill="url(#paint2_linear)"/>
<path d="M52.8075 138.248L49.8402 138.988C45.8317 138.988 42.1937 136.616 40.1895 132.315L33.1397 117.335C32.3989 115.481 30.9873 114.071 29.2795 114.071H13.1717V138.766H5.74756V84.2595H13.1717V107.397H27.942C29.4276 107.397 30.9093 106.283 31.6541 104.432L37.9631 90.937C39.9673 86.636 43.6053 84.2634 47.6137 84.2634L49.8402 85.0036V91.6772H47.6137C46.4244 91.6772 45.3131 92.7135 44.4982 94.5679L38.3374 108.063C37.8929 108.951 37.074 109.77 36.4814 110.066C37.5225 110.658 39.1523 112.216 39.823 113.7L46.7247 128.68C47.5396 130.534 48.6548 131.571 49.8441 131.571H52.8114V138.248H52.8075Z" fill="url(#paint3_linear)"/>
<path d="M100.308 117.927C100.308 129.572 90.2869 138.988 78.7842 138.988C67.2034 138.988 57.1863 129.568 57.1863 117.927C57.1863 106.431 67.2073 97.0145 78.7842 97.0145C90.2869 97.0145 100.308 106.435 100.308 117.927ZM64.6065 117.927C64.6065 125.493 71.2118 131.575 78.7842 131.575C86.3565 131.575 92.8877 125.493 92.8877 117.927C92.8877 110.51 86.3565 104.428 78.7842 104.428C71.2118 104.428 64.6065 110.514 64.6065 117.927Z" fill="url(#paint4_linear)"/>
<path d="M145.36 118.001C145.36 129.572 136.602 138.988 124.132 138.988C121.239 138.988 117.305 138.026 113.593 136.172V154.86H106.168V97.2366H112.107L112.996 101.686C116.93 99.017 122.498 97.0145 126.355 97.0145C136.602 97.0145 145.36 106.435 145.36 118.001ZM113.593 108.511V128.162C117.305 130.534 120.717 131.575 124.873 131.575C132.371 131.575 137.936 125.567 137.936 118.001C137.936 110.584 132.442 104.428 124.873 104.428C120.794 104.506 117.305 105.987 113.593 108.511Z" fill="url(#paint5_linear)"/>
<path d="M193.531 117.927C193.531 129.572 183.51 138.988 172.007 138.988C160.426 138.988 150.409 129.568 150.409 117.927C150.409 106.431 160.43 97.0145 172.007 97.0145C183.51 97.0145 193.531 106.435 193.531 117.927ZM157.83 117.927C157.83 125.493 164.435 131.575 172.007 131.575C179.579 131.575 186.111 125.493 186.111 117.927C186.111 110.51 179.579 104.428 172.007 104.428C164.435 104.428 157.83 110.514 157.83 117.927Z" fill="url(#paint6_linear)"/>
<path d="M224.109 138.766H199.391V97.2366H222.623C229.228 97.2366 234.574 102.504 234.574 109.029C234.574 111.402 233.163 114.963 230.566 116.295C233.681 117.631 236.727 122.006 236.727 126.159C236.727 133.129 231.088 138.766 224.109 138.766ZM206.815 104.432V113.626H223.516C225.298 113.478 227.154 111.55 227.154 109.029C227.154 106.583 225.076 104.432 222.627 104.432H206.815ZM206.815 120.822V131.575H224.109C227.002 131.575 229.306 128.98 229.306 126.159C229.306 123.269 227.006 120.818 224.109 120.818H206.815V120.822Z" fill="url(#paint7_linear)"/>
<path d="M244.147 97.2366H251.571V112.216H266.638C273.988 112.216 279.996 118.076 279.996 125.415C279.996 132.833 273.984 138.762 266.638 138.762H244.147V97.2366ZM266.638 131.575C270.053 131.575 272.798 128.832 272.798 125.419C272.798 122.006 270.053 119.412 266.638 119.412H251.571V131.575H266.638ZM284.972 97.2366H292.396V138.766H284.972V97.2366Z" fill="url(#paint8_linear)"/>
<path d="M80.3945 58.6209H60.2784V42.8973H91.6009V36.2237H52.8542V51.2967C49.2669 52.2824 46.089 51.1292 38.5167 47.9424C21.9683 40.9766 29.8448 33.0096 31.112 29.0709C36.3409 12.8564 33.9351 7.04764 32.0518 6.5256C30.1684 6.00355 31.1121 6.68533 30.2737 12.0226C29.4354 17.36 18.0418 29.4917 14.4857 40.6883C10.9296 51.8811 27.8679 66.3815 38.3217 71.6136C43.9756 74.442 49.1772 75.7938 52.8503 75.9497V90.7383H80.3867C88.9962 90.7383 95.972 83.2466 95.972 74.6446C95.9798 66.0347 89.0041 58.6209 80.3945 58.6209ZM80.3945 84.0569H60.2784V65.2945H80.3945C84.9215 65.2945 88.5596 70.1137 88.5596 74.6368C88.5596 79.1599 84.9215 84.0569 80.3945 84.0569Z" fill="url(#paint9_linear)"/>
<path d="M282.781 40.6805C279.224 29.4878 267.831 17.3522 266.993 12.0149C266.154 6.67755 267.098 5.99577 265.215 6.51782C263.331 7.03986 260.929 12.8486 266.154 29.0631C267.425 33.0018 275.298 40.9688 258.75 47.9346C251.236 51.098 248.05 52.259 244.498 51.3123V49.1969H230.991L215.702 83.831H214.216V49.1969H206.792V90.7267H219.781L234.921 56.0925H237.074V90.7267H244.498V75.9341C248.163 75.7588 253.33 74.4108 258.941 71.6019C269.398 66.3737 286.337 51.8733 282.781 40.6805Z" fill="url(#paint10_linear)"/>
<path d="M31.3498 7.87354C30.4842 9.02671 33.9506 10.4721 25.2787 23.4686C19.9406 31.4668 15.7411 36.173 15.7411 42.2389C15.7411 48.3047 22.6779 60.4325 35.1048 64.4725C35.1048 64.4725 39.7293 66.7828 42.6186 63.6076C45.5079 60.4325 34.2391 53.5018 29.3222 50.3228C26.1599 48.2774 21.8084 45.1257 22.0969 38.7716C22.3854 32.4174 28.0432 24.9257 30.4764 19.713C32.5079 16.534 33.9506 7.00476 31.3498 7.87354Z" fill="url(#paint11_linear)"/>
<path d="M265.616 7.69434C266.482 8.84752 263.015 10.2929 271.687 23.2894C277.025 31.2876 281.225 35.9938 281.225 42.0597C281.225 48.1255 274.288 60.2533 261.861 64.2933C261.861 64.2933 257.237 66.6035 254.347 63.4284C251.458 60.2533 262.727 53.3226 267.644 50.1436C270.806 48.0982 275.157 44.9465 274.869 38.5924C274.58 32.2382 268.923 24.7465 266.489 19.5338C264.458 16.3587 263.011 6.82946 265.616 7.69434Z" fill="url(#paint12_linear)"/>
</svg>
