<svg width="375" height="426" viewBox="0 0 375 426" fill="none" xmlns="http://www.w3.org/2000/svg">
<g clip-path="url(#clip0)">
<path d="M84.1243 336.063L53.7729 301.954L59.6468 296.726L84.1862 324.303L98.0175 311.988L82.2557 294.278C75.5113 286.7 76.5687 274.749 84.1355 268.013C91.7023 261.277 103.761 261.553 110.506 269.131L132.079 293.374L84.1243 336.063ZM120.394 292.069L104.632 274.359C101.085 270.37 93.9307 271.003 89.9475 274.546C85.9643 278.088 84.5774 285.065 88.1246 289.055L103.886 306.765L120.394 292.069Z" fill="#E7E2DE"/>
<path d="M48.0309 261.753L46.5635 253.129L63.9672 250.183L60.9848 232.681C59.5312 224.146 65.1476 216.014 73.6783 214.572C82.2979 213.116 90.3793 218.933 91.8329 227.468L96.2787 253.589L48.0309 261.753ZM83.4749 228.887C82.7975 224.921 79.0708 222.271 75.1033 222.938C71.1399 223.61 68.6645 227.306 69.3419 231.272L72.3243 248.774L86.4532 246.384L83.4749 228.887ZM39.9581 214.338L38.4906 205.714L86.7425 197.555L88.2099 206.179L39.9581 214.338Z" fill="#E7E2DE"/>
<path d="M71.4176 179.983L91.4049 187.694L88.267 195.85L42.5781 178.216L45.716 170.059L63.8261 177.049L69.1903 163.103C69.466 161.903 68.5355 159.946 66.8574 158.454L60.7458 152.907C56.8308 148.958 55.7856 143.872 57.4779 139.468L59.518 136.602L66.8611 139.446L65.6354 142.628C65.1371 143.934 65.7718 145.68 67.4983 147.283L73.6099 152.83C74.727 153.826 75.6068 156.408 75.7311 157.301C76.262 156.661 78.5508 155.579 79.9128 155.45L91.349 154.712C93.7354 154.602 95.3491 153.818 95.8474 152.512L97.073 149.33L104.417 152.165L104.011 155.658C102.287 160.146 98.1712 163.053 92.5906 163.428L81.1544 164.166C78.9363 164.339 77.381 164.959 76.7194 166.197L71.4176 179.983Z" fill="#E7E2DE"/>
<path d="M132.954 126.868L104.982 97.0955L103.132 98.831L118.117 140.808L106.98 151.278L73.4373 115.578L79.7988 109.595L107.771 139.368L109.041 138.17L94.1827 96.0724L105.763 85.1847L139.306 120.885L132.954 126.868Z" fill="#E7E2DE"/>
<path d="M199.392 111.707L198.768 70.8815L196.238 70.9162L179.031 111.987L163.737 112.201L162.989 63.2463L171.729 63.1288L172.352 103.955L174.099 103.93L191.48 62.8597L207.388 62.6398L208.135 111.595L199.392 111.707Z" fill="#E7E2DE"/>
<path d="M274.287 156.251L271.13 154.508C267.668 151.292 266.431 146.329 268.15 141.002L274.071 122.415C274.914 120.22 274.825 117.872 273.355 116.503L259.451 103.586L239.66 124.904L233.25 118.948L276.941 71.9001L283.351 77.8553L264.809 97.8255L277.562 109.673C278.843 110.862 281.015 111.093 283.144 110.091L299.39 103.503C304.565 101.397 309.607 102.27 313.068 105.486L314.397 107.913L309.048 113.674L307.124 111.889C306.099 110.935 304.303 110.941 302.111 111.886L285.977 118.591C284.876 119.001 283.518 119.052 282.772 118.832C283.195 120.174 283.353 122.833 282.743 124.648L276.691 143.115C275.911 145.368 276.039 147.158 277.064 148.113L279.631 150.494L274.287 156.251Z" fill="#E7E2DE"/>
<path d="M311.651 199.717C298.474 203.537 284.522 195.283 280.732 182.268C276.923 169.169 284.279 154.741 297.46 150.926C310.47 147.158 324.427 155.407 328.231 168.511C332.021 181.526 324.661 195.948 311.651 199.717ZM299.903 159.325C291.339 161.805 286.634 171.275 289.126 179.836C291.616 188.406 300.647 193.802 309.207 191.317C317.601 188.885 322.334 179.5 319.838 170.934C317.352 162.37 308.297 156.893 299.903 159.325Z" fill="#E7E2DE"/>
<path d="M302.011 257.221C288.659 254.44 279.876 242.081 282.846 227.702C283.535 224.362 285.585 220.061 288.614 216.225L267.042 211.737L268.813 203.18L335.321 217.015L333.906 223.865L328.557 223.826C330.702 229.004 331.685 235.901 330.765 240.354C328.324 252.16 315.368 259.999 302.011 257.221ZM320.536 222.868L297.852 218.148C294.229 221.857 292.214 225.546 291.228 230.337C289.443 238.98 295.045 246.844 303.778 248.659C312.335 250.442 320.753 245.586 322.556 236.853C323.448 232.131 322.565 227.748 320.536 222.868Z" fill="#E7E2DE"/>
<path d="M265.128 306.763C254.573 297.981 253.566 281.804 262.216 271.393C270.925 260.909 287.002 258.948 297.563 267.727C307.988 276.399 308.99 292.57 300.282 303.054C291.632 313.465 275.553 315.435 265.128 306.763ZM291.982 274.445C285.123 268.737 274.636 270.132 268.944 276.99C263.248 283.843 263.855 294.343 270.714 300.05C277.437 305.642 287.866 304.32 293.558 297.462C299.254 290.609 298.706 280.037 291.982 274.445Z" fill="#E7E2DE"/>
<path d="M218.488 301.928L245.333 290.717L264.241 335.903L239.007 346.441C231.831 349.438 223.629 346.131 220.659 339.035C219.581 336.455 219.49 331.939 221.704 329.307C217.713 329.267 212.413 325.891 210.523 321.366C207.351 313.783 210.912 305.091 218.488 301.928ZM252.908 331.441L248.72 321.437L230.582 329.01C228.714 329.975 227.578 332.918 228.722 335.661C229.833 338.323 233.072 339.725 235.732 338.608L252.908 331.441ZM245.44 313.608L240.543 301.909L221.759 309.756C218.614 311.066 217.298 314.938 218.579 318.005C219.893 321.153 223.51 322.774 226.651 321.459L245.44 313.608Z" fill="#E7E2DE"/>
<path d="M196.815 358.06L188.15 356.924L190.42 339.414L172.826 337.105C164.243 335.978 158.112 328.21 159.227 319.626C160.351 310.96 168.271 304.947 176.851 306.069L203.115 309.51L196.815 358.06ZM175.758 314.476C171.77 313.958 168.146 316.742 167.629 320.725C167.113 324.709 169.928 328.166 173.911 328.688L191.505 330.997L193.348 316.78L175.758 314.476ZM149.142 351.81L140.477 350.674L146.772 302.128L155.437 303.264L149.142 351.81Z" fill="#E7E2DE"/>
</g>
<defs>
<clipPath id="clip0">
<rect width="294.522" height="325.145" fill="white" transform="translate(154 425.405) rotate(-129.072)"/>
</clipPath>
</defs>
</svg>
